<svg xmlns="http://www.w3.org/2000/svg" width="24" height="24" fill="none" xmlns:v="https://vecta.io/nano"><g clip-path="url(#A)" fill="#fff"><path d="M20.392 8.02H.344c-.19 0-.343.153-.344.343v9.624c0 .19.153.343.343.344h13.633c.19 0 .344-.154.344-.344s-.154-.344-.344-.344H.687V8.707h19.361v.859c0 .19.153.343.343.344s.344-.153.344-.343V8.364c0-.19-.153-.343-.343-.344zm-2.331-1.595L2.023 2.816c-.089-.02-.182-.004-.259.045s-.132.127-.152.216L.81 6.685c-.041.185.076.369.261.41s.369-.076.41-.261l.727-3.272L17.91 7.095c.025.006.05.009.076.008.19 0 .343-.154.343-.344 0-.16-.112-.299-.268-.335zm-1.947-1.989L6.491.427c-.167-.07-.36.002-.441.164l-.802 1.604c-.091.168-.028.377.139.467s.377.028.467-.139l.01-.02v.001l.658-1.317 9.326 3.886c.176.073.377-.01.451-.185s-.01-.377-.185-.451zm.243 5.188h-3.182c-.19 0-.344.154-.344.344s.154.344.344.344h3.182c.19 0 .344-.154.344-.344s-.154-.344-.344-.344zm-6.39.023a3.53 3.53 0 0 0-3.528 3.528c.002 1.948 1.581 3.526 3.528 3.528a3.53 3.53 0 0 0 3.528-3.528 3.53 3.53 0 0 0-3.528-3.528zm0 6.415a2.89 2.89 0 0 1-2.887-2.887 2.89 2.89 0 0 1 2.887-2.887 2.89 2.89 0 0 1 2.887 2.887 2.89 2.89 0 0 1-2.887 2.887zm9.623-5.293c-2.125 0-4.411.502-4.411 1.604v9.623c0 1.102 2.285 1.604 4.411 1.604S24 23.098 24 21.996v-9.623c0-1.102-2.285-1.604-4.41-1.604zm3.609 11.221c-.061.223-1.263.808-3.609.808s-3.548-.585-3.609-.802v-.63c.853.43 2.263.63 3.609.63s2.756-.202 3.609-.631v.625zm0-1.604c-.061.223-1.263.808-3.609.808s-3.548-.585-3.609-.802v-.63c.853.43 2.263.63 3.609.63s2.756-.203 3.609-.631v.625zm0-1.604c-.061.223-1.263.808-3.609.808s-3.548-.585-3.609-.802v-.63c.853.43 2.263.63 3.609.63s2.756-.203 3.609-.631v.625zm0-1.604c-.061.223-1.263.808-3.609.808s-3.548-.585-3.609-.802v-.63c.853.43 2.263.63 3.609.63s2.756-.203 3.609-.631v.625zm0-1.604c-.061.223-1.263.808-3.609.808s-3.548-.585-3.609-.802v-.63c.853.428 2.263.63 3.609.63s2.756-.202 3.609-.631v.625zm0-1.604c-.061.223-1.263.808-3.609.808s-3.548-.585-3.609-.802v-.63c.853.428 2.263.63 3.609.63s2.756-.203 3.609-.631v.625zm-3.609-.796c-2.342 0-3.544-.584-3.609-.795v-.002c.065-.223 1.267-.807 3.609-.807 2.325 0 3.528.575 3.609.802-.08.227-1.283.802-3.609.802zM6.759 16.039H3.728l-1.437-1.572v-2.606l1.587-1.55h2.881c.19 0 .344-.154.344-.344s-.154-.344-.344-.344h-3.02a.35.35 0 0 0-.241.097l-1.791 1.747a.43.43 0 0 0-.103.281V14.6c0 .086.032.168.09.232l1.629 1.782c.065.071.157.112.254.112H6.76c.19 0 .344-.154.344-.344s-.154-.344-.344-.344zm3.408-3.265h-.401c-.125 0-.2-.07-.2-.1s.076-.1.2-.1h1.002a.401.401 0 1 0 0-.802h-.401a.401.401 0 1 0-.802 0v.018c-.445.063-.782.434-.802.882a.96.96 0 0 0 1.002.904h.401c.125 0 .2.07.2.1s-.076.1-.2.1H9.165a.401.401 0 1 0 0 .802h.401a.401.401 0 1 0 .802 0v-.018c.445-.063.782-.433.802-.882a.96.96 0 0 0-1.002-.904z"/></g><defs><clipPath id="A"><path fill="#fff" d="M0 0h24v24H0z"/></clipPath></defs></svg>