<svg xmlns="http://www.w3.org/2000/svg" viewBox="0 0 112.5 32.26"><defs><style>.cls-1{fill:#fff;}</style></defs><g id="Warstwa_2" data-name="Warstwa 2"><g id="Warstwa_2-2" data-name="Warstwa 2"><path class="cls-1" d="M11.16,25a2.55,2.55,0,1,0,2.55,2.54A2.55,2.55,0,0,0,11.16,25Zm0,4.82a2.28,2.28,0,1,1,2.28-2.28A2.29,2.29,0,0,1,11.16,29.85Z"/><path class="cls-1" d="M11.16,23.11a4.47,4.47,0,1,0,4.47,4.46A4.46,4.46,0,0,0,11.16,23.11Zm0,8.66a4.2,4.2,0,1,1,4.2-4.2A4.2,4.2,0,0,1,11.16,31.77Z"/><path class="cls-1" d="M112.35,22.29c-13.66-.2-28.64-.68-43.14-1.15S39.71,20.19,26.05,20c-.32-2.82-.94-5.79-1.54-8.66S23.31,5.54,23,2.74C52.61,3.45,72.65,3.91,86,4.18c7.64.15,13.19.25,17,.29,1.94,0,3.42,0,4.39,0l1.13,0c.35,0,.5,0,.52-.18V4.23l0-.05c-.07-.08-.14-.17-6.27-.5-4-.21-9.9-.5-17.68-.85C70,2.15,47.27,1.2,17.66,0h-.17V.17l.09,1c-.16-.24-.34-.48-.52-.71v0L16.85.16l-.42,0h-.07a28.76,28.76,0,0,0-4,.8A30.78,30.78,0,0,0,8.48,2.36a29.82,29.82,0,0,0-3.7,1.87c-.37.22-.73.45-1.09.68l-.51.34L3,5.85c-.31,1-.59,2-.85,3-.07.28-.14.55-.2.82s-.07.29-.1.43Q1.19,12.86.76,15.66c0,.12,0,.23-.05.34l-.06.48q-.42,3-.57,6.09v.06c0,.14,0,.27,0,.41C0,24.87,0,26.7.05,28.53c0,.13,0,.26,0,.39L.5,29l3.2.53,2.45.41.28,0c0-.14,0-.27-.07-.41a10.46,10.46,0,0,1,.06-3.95,5,5,0,0,1,.91-2.24,5.4,5.4,0,0,1,6-1.31,4.7,4.7,0,0,1,2.08,1.79l.23.37a12,12,0,0,1,1.15,3.46,10.05,10.05,0,0,1,.2,1.65,2.44,2.44,0,0,1,0,.27h.27q3.38-.09,6.75-.08,5.24,0,10.47.27l1.46.07.29,0-.09-.26a5.48,5.48,0,0,1,1-5.55l.09-.09a4,4,0,0,1,.31-.27h0l.29-.22a4.86,4.86,0,0,1,.53-.31,5.68,5.68,0,0,1,4.41-.05l.19.08a2.74,2.74,0,0,1,.42.21,6.55,6.55,0,0,1,3,6.75c0,.13,0,.25-.07.37a.06.06,0,0,0,0,0l.24.1s0-.05,0-.08,0-.22.07-.33a7.23,7.23,0,0,0-.5-4.09,6.31,6.31,0,0,0-2.27-2.77c7.93-.1,15.91-.18,23.75-.25,14.85-.15,30.21-.3,44.7-.59a.15.15,0,0,0,0-.3ZM3.5,5.5q.59-.4,1.2-.78A29.07,29.07,0,0,1,8.32,2.81a28.7,28.7,0,0,1,3.83-1.39,28.8,28.8,0,0,1,4-.87l.44-.06a13,13,0,0,1,1.13,1.62c.15.25.29.51.42.77a13.55,13.55,0,0,1,.75,1.75c.16.47.3.94.42,1.42l-.22,0-.27,0-.3,0-1.82.24-.33.05,2.2-.08h.31l.5,0h.2v0l.53,1.26,1.54,3.69H19.92l0,.12.18.38.37.78.19.41.48,1,1.62,3.49-1.25-1.41L21.48,16l-.35-.4-.18-.2L18.08,12.2l-.33-.36-2-2.25,2.38-.13L16.39,6.79l-.21-.32-.29,0c-1.36.21-2.72.44-4.07.7l-.39.08-.15,0q-2.71.54-5.39,1.23c-1.18.3-2.35.62-3.51,1C2.71,8.17,3.09,6.83,3.5,5.5Zm8.2,2.11c1.46-.29,2.93-.55,4.4-.77l1.55,2.38-2.47.14,2.27,2.54c-1.59.3-3.18.61-4.76.94l-3,.67.41-1.08c.57-1.52,1.09-3.07,1.57-4.62ZM2.28,10C3.36,9.63,4.44,9.32,5.53,9c1.77-.47,3.54-.89,5.33-1.26l.45-.09c-.19.6-.38,1.2-.58,1.79-.47,1.39-1,2.77-1.51,4.14-1.18.28-2.36.57-3.54.89q-2.28.62-4.53,1.35C1.44,13.87,1.81,11.9,2.28,10ZM1.07,16.4v-.07c1.32-.44,2.65-.84,4-1.22s2.63-.7,3.95-1l.44-.1c.87-.21,1.74-.4,2.61-.59,1.89-.41,3.79-.78,5.69-1.14L21,15.9l.27.3v0l-.21.06-6.3,1.84q-4.1,1.2-8.19,2.45L.5,22.44Q.65,19.41,1.07,16.4Zm12.35,5.44a5.6,5.6,0,0,0-6.3,1.39,5.1,5.1,0,0,0-1,2.34,10.51,10.51,0,0,0-.08,4l-4.5-.75L.48,28.6c-.07-1.76-.08-3.53,0-5.29,0-.13,0-.27,0-.4L5.7,21.3q4.09-1.25,8.19-2.46c2.41-.72,4.83-1.42,7.24-2.12l0,.12c.29,2.09.55,4.2.78,6.3l.06.54-2.46.05-3.83.12A5,5,0,0,0,13.42,21.84Zm22.43,7.79c-2.1-.12-4.21-.21-6.31-.27q-5.23-.15-10.47-.06l-1.83,0A11.83,11.83,0,0,0,17,27.65a12.51,12.51,0,0,0-1.11-3.43q3.07-.11,6.17-.17h.31c.73,0,1.47,0,2.21,0L36,24.07l.77,0A5.75,5.75,0,0,0,35.85,29.63Zm31.8-6.75c-8,.08-16.15.16-24.24.26a3.18,3.18,0,0,0-.32-.16,5.8,5.8,0,0,0-5.26.23,3.25,3.25,0,0,0-.42.31l-.24.2q-3.11-.07-6.21-.1H30.6c-2.64,0-5.29,0-7.93.05h-.23q-.3-2.72-.65-5.42c0-.24-.07-.48-.1-.72s-.09-.62-.13-.93v-.1l.16.18,2.12,2.38-2.79-6-.61-1.32-.07-.13v-.06h1.71L19.77,6.09l0-.09-.24-.86A14.22,14.22,0,0,0,18,1.7c-.06-.47-.11-.93-.15-1.39,50.84,2.05,80.6,3.36,88.75,3.89-9.3,0-45.33-.84-83.74-1.76h-.17l0,.17c.32,2.86.94,5.87,1.55,8.78s1.23,5.91,1.55,8.76l0,.13h.13c13.69.19,28.73.68,43.28,1.15,11.67.38,23.67.76,35,1C92.19,22.64,79.76,22.76,67.65,22.88Z"/><path class="cls-1" d="M81.76,23.48a4.51,4.51,0,0,0-1.43-.22,4.63,4.63,0,0,0-1.54.3,4.47,4.47,0,1,0,3-.08Zm-1.31,8.44a4.2,4.2,0,1,1,4.14-4.25A4.19,4.19,0,0,1,80.45,31.92Z"/><path class="cls-1" d="M80.24,25.15a2.74,2.74,0,0,0-2.38,1.61c0,.06.4.21.43.13a2.7,2.7,0,0,1,1.82-1.52,2.09,2.09,0,0,1,1.11,0,2.36,2.36,0,0,1,1,.64,2.54,2.54,0,0,1,.66,2.24,2.66,2.66,0,0,1-1.42,1.88,2.49,2.49,0,0,1-1.34.22,2.12,2.12,0,0,1-1.16-.54.67.67,0,0,0-.29-.1s-.16,0-.09.05a3.22,3.22,0,0,0,2.72.7,2.63,2.63,0,0,0,1.46-4.23A3.13,3.13,0,0,0,80.24,25.15Z"/><path class="cls-1" d="M42.39,23.57A4.47,4.47,0,0,0,41,23.33a4.38,4.38,0,0,0-1.54.28,4.47,4.47,0,1,0,3,0ZM41,32a4.2,4.2,0,1,1,4.2-4.2A4.2,4.2,0,0,1,41,32Z"/><path class="cls-1" d="M40.84,25.22a2.71,2.71,0,0,0-2.39,1.58c0,.05.39.21.43.13a2.67,2.67,0,0,1,1.83-1.49,2,2,0,0,1,1.11,0,2.42,2.42,0,0,1,1,.64,2.54,2.54,0,0,1,.62,2.26A2.64,2.64,0,0,1,42,30.23a2.56,2.56,0,0,1-1.34.2,2.12,2.12,0,0,1-1.15-.56.56.56,0,0,0-.28-.1s-.17,0-.1,0a3.25,3.25,0,0,0,2.71.75,2.62,2.62,0,0,0,1.93-1.69,2.57,2.57,0,0,0-.41-2.53A3.14,3.14,0,0,0,40.84,25.22Z"/><path class="cls-1" d="M92.55,23.33a4.24,4.24,0,0,0-1.43-.22,4.41,4.41,0,0,0-1.55.3,4.47,4.47,0,1,0,3-.08Zm-1.31,8.44a4.2,4.2,0,1,1,4.14-4.26A4.21,4.21,0,0,1,91.24,31.77Z"/><path class="cls-1" d="M91,25a2.77,2.77,0,0,0-2.37,1.62c0,.06.39.21.43.12a2.67,2.67,0,0,1,1.82-1.51,2,2,0,0,1,1.11,0,2.47,2.47,0,0,1,1,.63,2.56,2.56,0,0,1,.66,2.25A2.65,2.65,0,0,1,92.21,30a2.56,2.56,0,0,1-1.34.22,2.09,2.09,0,0,1-1.15-.54.59.59,0,0,0-.29-.1s-.17,0-.1.05a3.24,3.24,0,0,0,2.73.7A2.62,2.62,0,0,0,94,28.6a2.54,2.54,0,0,0-.45-2.51A3.12,3.12,0,0,0,91,25Z"/><path class="cls-1" d="M103.29,23.28a4.5,4.5,0,0,0-1.43-.21,4.35,4.35,0,0,0-1.54.3,4.46,4.46,0,1,0,3-.09ZM102,31.73a4.2,4.2,0,1,1,4.14-4.26A4.2,4.2,0,0,1,102,31.73Z"/><path class="cls-1" d="M101.76,25a2.75,2.75,0,0,0-2.37,1.62c0,.05.39.21.43.12a2.73,2.73,0,0,1,1.82-1.52,2.09,2.09,0,0,1,1.11,0,2.4,2.4,0,0,1,1,.63,2.56,2.56,0,0,1,.66,2.25A2.64,2.64,0,0,1,103,29.94a2.52,2.52,0,0,1-1.35.23,2.19,2.19,0,0,1-1.15-.54.59.59,0,0,0-.29-.1s-.17,0-.1,0a3.25,3.25,0,0,0,2.73.71,2.67,2.67,0,0,0,1.91-1.72,2.61,2.61,0,0,0-.45-2.52A3.17,3.17,0,0,0,101.76,25Z"/><path class="cls-1" d="M36.31,11.06c.07-.3-.13-.53-.61-.7l-.82-.27c-1.14-.42-1.68-1-1.63-1.7a1.33,1.33,0,0,1,.42-.87,2.52,2.52,0,0,1,1.06-.6,4.65,4.65,0,0,1,1.48-.2,2.93,2.93,0,0,1,1.73.5,1.53,1.53,0,0,1,.64,1.32H36.89A.68.68,0,0,0,36.71,8a.8.8,0,0,0-.63-.21,1.43,1.43,0,0,0-.75.16.66.66,0,0,0-.39.45c-.06.27.18.49.74.66a9.66,9.66,0,0,1,1.21.44c.79.38,1.17.9,1.12,1.55a1.39,1.39,0,0,1-.41.89,2.44,2.44,0,0,1-1,.59,4.42,4.42,0,0,1-1.45.2,3.78,3.78,0,0,1-1.09-.15,2.45,2.45,0,0,1-.86-.41,1.6,1.6,0,0,1-.7-1.42h1.71a.81.81,0,0,0,.21.68,1.15,1.15,0,0,0,.82.23A1.42,1.42,0,0,0,36,11.5.64.64,0,0,0,36.31,11.06Z"/><path class="cls-1" d="M45.44,7.89H43.33l-1,4.76H40.6l1-4.76H39.55l.24-1.09h5.89Z"/><path class="cls-1" d="M48.84,10.58H47.9l-.45,2.07h-1.7L47,6.8h2.56a3.31,3.31,0,0,1,1.9.47,1.29,1.29,0,0,1,.59,1.26,1.74,1.74,0,0,1-.45,1.05,2.71,2.71,0,0,1-1.12.66l1,2.34v.07H49.64Zm-.71-1.09h1a1.43,1.43,0,0,0,.71-.16.92.92,0,0,0,.43-.44.88.88,0,0,0,.08-.54c-.07-.3-.3-.46-.71-.47H48.48Z"/><path class="cls-1" d="M59,6.8l-.8,3.81a2.32,2.32,0,0,1-1,1.57,3.59,3.59,0,0,1-2.11.55,3.52,3.52,0,0,1-1.37-.27,1.82,1.82,0,0,1-.86-.75,1.61,1.61,0,0,1-.19-1.09l.81-3.82h1.71l-.8,3.83a1.22,1.22,0,0,0,0,.38.59.59,0,0,0,.23.46,1,1,0,0,0,.58.18,1.18,1.18,0,0,0,1.32-1l.81-3.82Z"/><path class="cls-1" d="M65,11.93a2.82,2.82,0,0,1-1.19.59,6.28,6.28,0,0,1-1.73.2,3.05,3.05,0,0,1-1.54-.37,2,2,0,0,1-.9-1,2.82,2.82,0,0,1-.14-1.46l0-.24a3.42,3.42,0,0,1,1.19-2.16,3.49,3.49,0,0,1,2.35-.78A3,3,0,0,1,65,7.24a2,2,0,0,1,.73,1.47H64.08A1,1,0,0,0,63.79,8a1.1,1.1,0,0,0-.71-.23,1.49,1.49,0,0,0-1.14.43,2.51,2.51,0,0,0-.61,1.31,3.74,3.74,0,0,0-.1,1.12,1,1,0,0,0,1.08,1,2.13,2.13,0,0,0,1.06-.24l.23-.91H62.42l.21-1h2.88Z"/><path class="cls-1" d="M70.5,11.55H68.18l-.64,1.1H65.66L69.5,6.8h1.61l1.34,5.85H70.67Zm-1.68-1.08h1.5l-.31-2Z"/><path class="cls-1" d="M76.15,10.58h-1l-.45,2.07h-1.7L74.31,6.8h2.56a3.26,3.26,0,0,1,1.89.47,1.29,1.29,0,0,1,.59,1.26,1.63,1.63,0,0,1-.45,1.05,2.67,2.67,0,0,1-1.11.66l1,2.34v.07H76.94Zm-.72-1.09h1a1.46,1.46,0,0,0,.71-.16,1,1,0,0,0,.43-.44.87.87,0,0,0,.07-.54c-.06-.3-.3-.46-.71-.47H75.78Z"/><path class="cls-1" d="M84.7,10.16H82l-.3,1.4h3.15l-.24,1.09H79.8L81.05,6.8h4.87l-.23,1.09H82.53l-.27,1.23h2.67Z"/><path class="cls-1" d="M88.71,10.49l-.89.67-.32,1.49H85.79L87.05,6.8h1.71l-.55,2.5.71-.69L90.8,6.8H93L90,9.45l1.66,3.2H89.73Z"/><path class="cls-1" d="M52.21,16.08h-.73l-.21.43h-.59l1.21-2.29h.51l.42,2.29h-.56Zm-.53-.42h.47l-.1-.79Z"/><path class="cls-1" d="M55.13,14.22l-.26,1.49a.92.92,0,0,1-.32.62,1.09,1.09,0,0,1-1.1.11.66.66,0,0,1-.27-.3.72.72,0,0,1-.06-.42l.26-1.5h.54l-.26,1.5v.15a.3.3,0,0,0,.07.18.29.29,0,0,0,.19.07c.23,0,.37-.13.41-.4l.26-1.5Z"/><path class="cls-1" d="M57.14,14.65h-.67l-.32,1.86h-.54l.32-1.86h-.65l.07-.43h1.86Z"/><path class="cls-1" d="M58,16.54a.78.78,0,0,1-.57-.23,1,1,0,0,1-.24-.61,1.82,1.82,0,0,1,0-.45,1.45,1.45,0,0,1,.16-.47,1.28,1.28,0,0,1,.29-.36,1,1,0,0,1,.67-.23.76.76,0,0,1,.41.11.71.71,0,0,1,.28.29,1.25,1.25,0,0,1,.13.44,2.89,2.89,0,0,1,0,.4,2.13,2.13,0,0,1-.13.43,1.41,1.41,0,0,1-.23.35,1.2,1.2,0,0,1-.34.25A1,1,0,0,1,58,16.54ZM58.57,15c0-.26-.11-.4-.31-.41a.41.41,0,0,0-.37.18,1.18,1.18,0,0,0-.19.55,1.55,1.55,0,0,0,0,.35c0,.27.11.4.31.41a.41.41,0,0,0,.33-.14,1,1,0,0,0,.2-.42A2.46,2.46,0,0,0,58.57,15Z"/><path class="cls-1" d="M60.3,15.73h-.92l.07-.41h.92Z"/><path class="cls-1" d="M62.15,15.54h-.84l-.1.55h1l-.08.42H60.6l.4-2.29h1.53l-.07.43h-1l-.08.48h.84Z"/><path class="cls-1" d="M63,16.09h.93l-.08.42H62.36l.4-2.29h.54Z"/><path class="cls-1" d="M65.62,15.54h-.84l-.1.55h1l-.07.42H64.07l.4-2.29H66l-.08.43h-1l-.08.48h.84Z"/><path class="cls-1" d="M66.76,15.66l-.28.27-.11.58h-.53l.39-2.29h.54l-.17,1,.22-.27.6-.71h.7l-1,1,.52,1.25h-.61Z"/><path class="cls-1" d="M69.92,14.65h-.67l-.32,1.86h-.54l.32-1.86h-.65l.07-.43H70Z"/><path class="cls-1" d="M70.81,15.7h-.3l-.14.81h-.54l.4-2.29H71a.9.9,0,0,1,.6.18.56.56,0,0,1,.18.5.77.77,0,0,1-.14.41.87.87,0,0,1-.35.26l.31.91v0h-.58Zm-.22-.42h.31a.38.38,0,0,0,.22-.06.36.36,0,0,0,.14-.18.38.38,0,0,0,0-.21.2.2,0,0,0-.22-.18H70.7Z"/><path class="cls-1" d="M72.84,15.21l.58-1H74l-1,1.49-.14.8h-.55l.15-.85L72,14.22h.56Z"/><path class="cls-1" d="M74.71,15.66l-.28.27-.11.58h-.53l.39-2.29h.54l-.17,1,.22-.27.6-.71h.7l-.95,1,.52,1.25H75Z"/></g></g></svg>