<svg width="268" height="78" viewBox="0 0 268 78" fill="none" xmlns="http://www.w3.org/2000/svg">
<g clip-path="url(#clip0)">
<path d="M26.592 60.5029C25.3912 60.5029 24.2174 60.8642 23.219 61.5412C22.2206 62.2182 21.4424 63.1804 20.9829 64.3061C20.5234 65.4319 20.4032 66.6707 20.6374 67.8658C20.8717 69.0609 21.4499 70.1587 22.299 71.0203C23.148 71.8819 24.2298 72.4687 25.4075 72.7064C26.5852 72.9441 27.8059 72.8221 28.9153 72.3558C30.0247 71.8895 30.9729 71.0998 31.64 70.0867C32.3071 69.0735 32.6632 67.8824 32.6632 66.6638C32.6615 65.0304 32.0213 63.4643 30.8831 62.3093C29.7449 61.1542 28.2016 60.5046 26.592 60.5029V60.5029ZM26.592 72.1763C25.5175 72.1763 24.4672 71.8529 23.5738 71.2471C22.6805 70.6413 21.9842 69.7802 21.5731 68.7729C21.162 67.7655 21.0546 66.657 21.2644 65.5876C21.4741 64.5182 21.9917 63.536 22.7516 62.7652C23.5115 61.9943 24.4796 61.4695 25.5335 61.257C26.5874 61.0446 27.6797 61.1541 28.6722 61.5716C29.6648 61.9892 30.513 62.6961 31.1096 63.6029C31.7063 64.5097 32.0245 65.5756 32.0241 66.666C32.0213 68.1267 31.4479 69.5267 30.4297 70.5592C29.4115 71.5917 28.0314 72.1724 26.592 72.1741V72.1763Z" fill="white"/>
<path d="M26.592 55.8703C24.4884 55.8703 22.4319 56.5033 20.6828 57.6893C18.9337 58.8754 17.5704 60.5611 16.7653 62.5334C15.9603 64.5056 15.7497 66.6758 16.1601 68.7696C16.5705 70.8633 17.5835 72.7866 19.071 74.2961C20.5585 75.8056 22.4537 76.8336 24.517 77.2501C26.5802 77.6665 28.7188 77.4528 30.6624 76.6358C32.6059 75.8189 34.2671 74.4355 35.4358 72.6605C36.6045 70.8855 37.2283 68.7986 37.2283 66.6639C37.2244 63.8025 36.1025 61.0594 34.1087 59.0361C32.1148 57.0128 29.4117 55.8743 26.592 55.8703V55.8703ZM26.592 76.8089C24.6147 76.8089 22.6819 76.2139 21.0378 75.0992C19.3938 73.9844 18.1124 72.4 17.3558 70.5462C16.5991 68.6924 16.4011 66.6526 16.7869 64.6847C17.1726 62.7167 18.1248 60.909 19.5229 59.4902C20.921 58.0714 22.7024 57.1052 24.6417 56.7138C26.5809 56.3223 28.591 56.5232 30.4178 57.2911C32.2446 58.0589 33.8059 59.3592 34.9044 61.0276C36.0029 62.6959 36.5893 64.6574 36.5893 66.6639C36.5853 69.3533 35.5308 71.9314 33.6568 73.8331C31.7828 75.7348 29.2422 76.8049 26.592 76.8089Z" fill="white"/>
<path d="M267.645 53.8879C235.116 53.4123 199.416 52.2407 164.884 51.1079C130.353 49.9752 94.6137 48.8013 62.0678 48.3258C61.2945 41.5011 59.8225 34.3328 58.3974 27.3979C56.9829 20.5106 55.5216 13.4028 54.7483 6.63007C125.345 8.34217 173.086 9.44033 204.984 10.0889C223.166 10.4607 236.392 10.692 245.418 10.7957C250.045 10.8498 253.569 10.8692 255.891 10.8519C257.071 10.8519 257.972 10.826 258.568 10.8001C259.42 10.7633 259.774 10.7482 259.812 10.3677L259.825 10.2034L259.723 10.0845C259.557 9.88997 259.384 9.68893 244.783 8.88692C235.364 8.36811 221.191 7.67851 202.662 6.83327C166.661 5.19034 112.623 2.89241 42.0605 0.00432349L41.6643 0L41.6962 0.402084C41.7538 1.17815 41.8283 1.9607 41.9093 2.74758C41.513 2.1639 41.0998 1.59104 40.6631 1.03115C40.6547 1.02148 40.6469 1.01138 40.6396 1.00089C40.4756 0.784713 40.3073 0.581509 40.139 0.376143C39.8003 0.415055 39.4616 0.456128 39.125 0.499363L38.9759 0.52098C35.7672 0.951316 32.5909 1.60132 29.4686 2.46655C26.3089 3.33785 23.2097 4.42111 20.1914 5.70916C17.1632 7.00587 14.2258 8.51106 11.3999 10.2142C10.5165 10.7547 9.64382 11.3088 8.78178 11.8766C8.38129 12.1432 7.98293 12.4142 7.58671 12.6894C7.43617 13.1708 7.28705 13.6543 7.13935 14.14C6.41507 16.5308 5.74475 18.9361 5.1284 21.3559C4.96224 22.0044 4.79821 22.6745 4.64057 23.336C4.55749 23.6819 4.47654 24.0299 4.39559 24.3758C3.35461 28.8333 2.49612 33.3305 1.82012 37.8672C1.77965 38.1375 1.74343 38.4077 1.70509 38.6779C1.6497 39.0649 1.59219 39.4496 1.53893 39.8344C0.871453 44.7243 0.421261 49.6365 0.188354 54.571C0.188354 54.6186 0.188354 54.6662 0.188354 54.7137C0.173442 55.0423 0.162791 55.3622 0.147879 55.6995C-0.0367425 60.1181 -0.0445534 64.5381 0.124446 68.9596C0.137228 69.2817 0.150009 69.6081 0.164921 69.9216L1.19383 70.0967L8.81799 71.3937L14.6463 72.3838L15.3216 72.4984C15.2556 72.1698 15.196 71.8498 15.1406 71.5126C14.5932 68.3449 14.6482 65.1002 15.3025 61.9534C15.7136 60.0575 16.1013 58.2784 17.4689 56.549C20.528 52.7227 26.9166 51.2982 31.7096 53.3756C33.9081 54.3289 35.493 55.8962 36.6625 57.6883C36.8542 57.9801 37.0331 58.2806 37.2035 58.5832C38.8204 61.4778 39.4936 64.7658 39.943 66.9686C40.2096 68.2801 40.3749 69.6108 40.4373 70.9484C40.4479 71.1646 40.4543 71.3807 40.4607 71.6099L41.0998 71.5904C46.4623 71.4463 51.8242 71.3822 57.1853 71.398C65.4989 71.4225 73.8069 71.6387 82.1092 72.0466C83.2723 72.1028 84.4347 72.1633 85.5964 72.2281L86.293 72.2692C86.2163 72.066 86.1439 71.8607 86.08 71.6531C84.4993 66.8108 85.3216 61.6053 88.5468 58.2395C88.6171 58.166 88.6874 58.0904 88.7598 58.0233C88.9998 57.787 89.2469 57.5665 89.5011 57.3618H89.4713C89.7014 57.1716 89.9357 56.9965 90.1743 56.8322C90.5762 56.5553 90.9977 56.3089 91.4354 56.0951C94.8076 54.4348 98.8913 54.7202 101.942 55.9524C102.095 56.0151 102.249 56.0778 102.396 56.1448C102.741 56.3004 103.073 56.4712 103.397 56.6528C109.225 59.9127 111.564 67.1567 110.58 72.9869C110.529 73.2852 110.473 73.5792 110.405 73.8689C110.405 73.9057 110.386 73.9381 110.378 73.9748L110.961 74.2126C110.978 74.1478 110.995 74.0851 111.01 74.0224C111.07 73.7587 111.123 73.4928 111.17 73.2269C111.73 69.8841 111.318 66.4484 109.986 63.3391C108.861 60.6262 106.99 58.2997 104.596 56.6377C123.474 56.3977 142.495 56.2053 161.184 56.0259C196.546 55.6757 233.131 55.3147 267.654 54.6143C267.749 54.6143 267.841 54.5758 267.908 54.5073C267.976 54.4387 268.014 54.3458 268.014 54.2489C268.014 54.152 267.976 54.0591 267.908 53.9906C267.841 53.9221 267.749 53.8836 267.654 53.8836L267.645 53.8879ZM8.34081 13.2882C9.2767 12.644 10.2268 12.0157 11.1911 11.4032C19.5188 6.19815 28.8035 2.76772 38.4796 1.32082C38.8268 1.26894 39.174 1.22138 39.5213 1.17383C40.5128 2.41159 41.4134 3.72152 42.216 5.09307C42.5739 5.70268 42.9112 6.3231 43.2279 6.95433C43.9151 8.32282 44.5066 9.73865 44.9981 11.1913C45.3752 12.3219 45.7118 13.4655 46.0143 14.622L45.4817 14.6999L44.8426 14.782L44.1332 14.875C42.6847 15.0609 41.2382 15.2533 39.7918 15.4673C39.5276 15.5062 39.2656 15.5494 39.0015 15.5905L44.2568 15.3938L44.9832 15.3678L46.1889 15.3224L46.6597 15.3051L46.6895 15.3786L47.9315 18.4159L51.5998 27.3331H47.4458L47.58 27.6227L48.006 28.5609L48.873 30.446L49.3225 31.4231L50.4707 33.9177L54.3478 42.3485L51.3654 38.9546L51.1652 38.7384L50.3131 37.7786L49.887 37.2901L43.0489 29.5078L42.2821 28.6431L37.5316 23.1955L43.1874 22.8712L39.042 16.4163L38.5584 15.6467L37.8661 15.7548C34.6267 16.2606 31.3979 16.8306 28.1798 17.4647L27.251 17.6463L26.8761 17.7198C22.5645 18.5888 18.2806 19.5796 14.0243 20.6922C11.228 21.4214 8.44378 22.2011 5.67161 23.0312C6.46122 19.7569 7.35096 16.5092 8.34081 13.2882ZM27.8858 18.4051C31.361 17.7032 34.8489 17.0763 38.3496 16.5244L42.0477 22.2876L36.1725 22.6248L41.562 28.7512C37.7766 29.4797 33.9954 30.232 30.2249 31.0405C27.8106 31.5578 25.4041 32.099 23.0054 32.6639C23.3378 31.7992 23.6644 30.9259 23.9854 30.0439C25.3374 26.356 26.5892 22.632 27.741 18.872C27.79 18.7229 27.8368 18.5629 27.8858 18.4051ZM5.42876 24.0624C7.99926 23.2827 10.5818 22.5441 13.1765 21.8466C17.3816 20.7225 21.6144 19.7137 25.8749 18.8201C26.2306 18.7445 26.5885 18.6753 26.94 18.604C26.4927 20.048 26.0368 21.4899 25.5596 22.9274C24.4419 26.2926 23.2405 29.6274 21.9552 32.932C19.1376 33.6079 16.33 34.3285 13.5322 35.0937C9.90797 36.0766 6.30785 37.1575 2.73187 38.3363C3.42491 33.5402 4.32388 28.7822 5.42876 24.0624ZM2.54441 39.6507C2.54441 39.5966 2.56145 39.5404 2.56784 39.4864C5.71919 38.4271 8.89397 37.4428 12.0922 36.5335C15.2165 35.6486 18.3572 34.8264 21.5143 34.0669L22.5602 33.8118C24.6266 33.3189 26.6965 32.8448 28.7699 32.3894C33.2754 31.3993 37.7979 30.4935 42.3289 29.6267L50.0617 38.4423L50.688 39.1535L50.7029 39.2119L50.1938 39.3632C45.1891 40.8274 40.1894 42.306 35.1947 43.7991C28.6833 45.7504 22.1782 47.7284 15.6795 49.7331C10.851 51.2218 6.02239 52.7278 1.19383 54.2511C1.43384 49.3684 1.88403 44.5016 2.54441 39.6507ZM31.9546 52.7876C26.842 50.5675 20.2383 52.044 16.9662 56.1491C15.5091 57.9801 15.1065 59.8414 14.6783 61.8258C14.0174 64.9793 13.9451 68.2305 14.4653 71.411L3.76078 69.593L1.14057 69.1477C0.965894 64.8905 0.954533 60.6318 1.10649 56.3718C1.10649 56.0432 1.13418 55.7232 1.14697 55.3882C5.28533 54.0911 9.42582 52.7941 13.5684 51.497C20.0657 49.4866 26.5693 47.5021 33.0794 45.5436C38.824 43.8142 44.5756 42.1086 50.3344 40.4267C50.3472 40.5197 50.3621 40.6148 50.3749 40.7078C51.0693 45.7792 51.6935 50.8593 52.2474 55.9481C52.2942 56.3804 52.3404 56.8128 52.3858 57.2451C50.4303 57.2826 48.474 57.3265 46.517 57.377C43.4778 57.4562 40.4394 57.5542 37.4017 57.671C36.1661 55.6497 34.4342 53.8598 31.9546 52.7876ZM85.394 71.6272C80.3865 71.339 75.3755 71.1228 70.3609 70.9787C62.0486 70.7409 53.7343 70.6948 45.4178 70.8403C43.9692 70.8663 42.5199 70.898 41.0699 70.9354C41.0066 69.5593 40.8371 68.1903 40.5629 66.8411C40.1177 64.6642 39.4616 61.4605 37.9172 58.5595C42.8139 58.3779 47.7135 58.241 52.6159 58.1487L53.3551 58.1336C55.109 58.1033 56.8622 58.0767 58.6147 58.0536L85.8563 58.1833L87.6947 58.2265C84.6846 61.7134 83.9178 66.8303 85.4004 71.6272H85.394ZM161.163 55.3104C142.093 55.4984 122.675 55.6908 103.416 55.9373C103.162 55.8011 102.907 55.6714 102.645 55.5525C99.1043 53.9571 93.996 53.6069 90.1061 56.1188C89.7579 56.3421 89.4236 56.5869 89.1049 56.8517C88.9153 57.0073 88.73 57.1695 88.5489 57.3424C83.6195 57.2213 78.6894 57.1428 73.7586 57.1068H72.9065C66.6067 57.0693 60.3061 57.1053 54.0048 57.2148H53.4531C52.9873 52.8424 52.4696 48.4749 51.9001 44.1125C51.8256 43.5353 51.751 42.956 51.6743 42.3831C51.5742 41.6287 51.4613 40.8699 51.3633 40.1198L51.3314 39.882L51.7191 40.3143L56.772 46.0711L50.1256 31.6263L48.66 28.4399L48.5088 28.1113C48.5088 28.0681 48.496 28.0248 48.4875 27.9816H52.5605L47.1071 14.7193C47.0879 14.6458 47.0709 14.5723 47.0517 14.5031C46.8706 13.8049 46.681 13.1088 46.4723 12.4192C45.6057 9.49902 44.3698 6.70512 42.7954 4.10731C42.6463 2.97456 42.5228 1.85261 42.4333 0.745801C163.557 5.71132 234.445 8.86315 253.858 10.1602C231.704 10.1342 145.88 8.13031 54.3606 5.90804H53.9537L53.9984 6.31661C54.7611 13.2342 56.2586 20.5193 57.7029 27.5601C59.1472 34.6009 60.6384 41.8513 61.3989 48.7451L61.433 49.0608H61.7461C94.3709 49.5039 130.204 50.6885 164.861 51.8256C192.671 52.7465 221.242 53.6761 248.303 54.2597C219.629 54.7332 190.004 55.025 161.169 55.3104H161.163Z" fill="white"/>
<path d="M194.79 56.7652C192.647 56.0644 190.341 56.0716 188.203 56.7858C186.064 57.5001 184.205 58.8845 182.891 60.7398C181.578 62.595 180.878 64.8254 180.894 67.1098C180.909 69.3942 181.638 71.6147 182.976 73.4516C184.315 75.2885 186.193 76.6471 188.341 77.3317C190.488 78.0163 192.795 77.9916 194.928 77.2612C197.061 76.5308 198.91 75.1323 200.21 73.2671C201.51 71.402 202.193 69.1664 202.161 66.8822C202.133 64.6244 201.406 62.4326 200.084 60.617C198.761 58.8014 196.909 57.4539 194.79 56.7652ZM191.669 77.1742C189.692 77.2027 187.752 76.6356 186.093 75.5448C184.433 74.4539 183.13 72.8883 182.348 71.0458C181.566 69.2034 181.339 67.1669 181.698 65.194C182.056 63.221 182.983 61.4002 184.361 59.9618C185.739 58.5234 187.507 57.5321 189.44 57.1131C191.373 56.6941 193.386 56.8664 195.223 57.6081C197.059 58.3497 198.638 59.6276 199.76 61.2799C200.881 62.9322 201.494 64.8848 201.521 66.8908C201.554 69.5789 200.535 72.1704 198.689 74.0979C196.842 76.0253 194.318 77.1315 191.669 77.1742V77.1742Z" fill="white"/>
<path d="M191.147 60.7925C189.942 60.8537 188.777 61.2512 187.78 61.9412C186.784 62.6312 185.994 63.5869 185.498 64.7031C185.44 64.8393 186.435 65.2068 186.522 65.0014C186.919 64.0934 187.515 63.2899 188.265 62.6527C189.016 62.0156 189.9 61.5618 190.851 61.3264C191.717 61.0902 192.631 61.0999 193.493 61.3545C194.378 61.6705 195.173 62.2037 195.806 62.9067C196.48 63.6161 196.975 64.4805 197.248 65.4261C197.522 66.3717 197.565 67.3704 197.376 68.337C196.997 70.2652 195.761 72.0271 193.989 72.8766C192.993 73.3509 191.887 73.5357 190.794 73.4106C189.769 73.2752 188.811 72.8222 188.05 72.1135C187.846 71.9706 187.609 71.8855 187.362 71.8671C187.277 71.8541 186.965 71.8325 187.13 71.9817C188.015 72.7431 189.058 73.2915 190.182 73.5857C191.306 73.88 192.48 73.9125 193.618 73.6808C194.662 73.4421 195.628 72.9356 196.424 72.2096C197.219 71.4836 197.818 70.5626 198.162 69.5346C198.521 68.5135 198.612 67.415 198.425 66.3475C198.238 65.2799 197.781 64.2803 197.097 63.4471C196.365 62.5796 195.45 61.8905 194.42 61.431C193.39 60.9714 192.272 60.7532 191.147 60.7925V60.7925Z" fill="white"/>
<path d="M100.997 56.9856C98.865 56.252 96.5583 56.224 94.4094 56.9057C92.2605 57.5874 90.3802 58.9437 89.0395 60.7792C87.6987 62.6146 86.9666 64.8346 86.9486 67.1193C86.9306 69.404 87.6276 71.6355 88.9393 73.4925C90.251 75.3495 92.1096 76.7361 94.2475 77.4526C96.3854 78.1691 98.6923 78.1785 100.836 77.4796C102.979 76.7806 104.849 75.4092 106.175 73.5631C107.502 71.7169 108.216 69.4911 108.217 67.2064C108.228 64.9481 107.536 62.7441 106.239 60.9086C104.943 59.0732 103.108 57.7002 100.997 56.9856V56.9856ZM97.5888 77.3514C95.6112 77.3531 93.6775 76.7596 92.0323 75.6459C90.3872 74.5322 89.1045 72.9483 88.3465 71.0947C87.5885 69.2411 87.3893 67.201 87.7741 65.2325C88.1589 63.2639 89.1104 61.4555 90.5082 60.0358C91.906 58.6161 93.6873 57.649 95.6268 57.2569C97.5663 56.8647 99.5769 57.0651 101.404 57.8327C103.231 58.6003 104.793 59.9006 105.892 61.5692C106.991 63.2377 107.578 65.1995 107.578 67.2064C107.574 69.8943 106.52 72.4711 104.648 74.3725C102.776 76.274 100.238 77.3451 97.5888 77.3514Z" fill="white"/>
<path d="M97.2991 60.9612C96.0944 61.0055 94.925 61.3862 93.9197 62.0612C92.9144 62.7363 92.1119 63.6796 91.6007 64.7875C91.5432 64.9215 92.5316 65.3019 92.6211 65.0987C93.0312 64.1986 93.6392 63.4058 94.3985 62.7815C95.1578 62.1571 96.048 61.7178 97.0008 61.4973C97.8707 61.2727 98.7847 61.2959 99.6423 61.5643C100.522 61.8881 101.309 62.4272 101.934 63.1337C102.598 63.8531 103.08 64.7246 103.34 65.6739C103.599 66.6232 103.629 67.6222 103.426 68.5856C103.019 70.5096 101.758 72.2606 99.9747 73.0712C98.9709 73.5313 97.8613 73.7004 96.7686 73.5598C95.7455 73.4099 94.793 72.9425 94.0419 72.2217C93.8398 72.0758 93.6031 71.987 93.356 71.9644C93.2729 71.9515 92.9619 71.9255 93.1238 72.0768C93.9982 72.8508 95.0337 73.4142 96.1529 73.7249C97.2721 74.0356 98.446 74.0856 99.587 73.8711C100.635 73.6479 101.608 73.1554 102.414 72.4407C103.22 71.7261 103.832 70.8132 104.19 69.7897C104.564 68.7739 104.669 67.6768 104.496 66.6069C104.324 65.537 103.879 64.5313 103.206 63.6893C102.487 62.8135 101.582 62.1134 100.559 61.6411C99.5368 61.1688 98.4224 60.9364 97.2991 60.9612V60.9612Z" fill="white"/>
<path d="M220.481 56.3934C218.338 55.6925 216.031 55.6998 213.893 56.4141C211.755 57.1285 209.895 58.513 208.582 60.3684C207.268 62.2238 206.569 64.4544 206.584 66.7388C206.6 69.0233 207.329 71.2438 208.668 73.0807C210.006 74.9175 211.885 76.2759 214.033 76.9603C216.181 77.6446 218.487 77.6196 220.62 76.8888C222.753 76.1581 224.602 74.7592 225.902 72.8938C227.201 71.0283 227.884 68.7925 227.851 66.5082C227.832 64.2486 227.108 62.0533 225.784 60.2365C224.46 58.4197 222.604 57.0744 220.481 56.3934V56.3934ZM217.36 76.8067C215.383 76.8356 213.442 76.2689 211.782 75.1782C210.122 74.0876 208.819 72.522 208.036 70.6795C207.253 68.837 207.026 66.8002 207.384 64.8268C207.742 62.8535 208.668 61.0321 210.046 59.593C211.424 58.1539 213.191 57.1618 215.125 56.7421C217.058 56.3224 219.071 56.4939 220.909 57.235C222.746 57.9762 224.326 59.2536 225.448 60.9057C226.57 62.5578 227.184 64.5105 227.212 66.5168C227.246 69.2056 226.229 71.7985 224.382 73.7273C222.536 75.6561 220.012 76.7635 217.362 76.8067H217.36Z" fill="white"/>
<path d="M216.84 60.4186C215.635 60.4802 214.47 60.8782 213.473 61.5685C212.476 62.2588 211.686 63.2149 211.191 64.3313C211.133 64.4653 212.128 64.8328 212.215 64.6275C212.611 63.7195 213.208 62.916 213.958 62.2788C214.709 61.6417 215.593 61.1879 216.544 60.9525C217.411 60.717 218.324 60.7275 219.185 60.9828C220.069 61.2945 220.863 61.8215 221.499 62.5176C222.173 63.2272 222.667 64.0916 222.941 65.0372C223.214 65.9827 223.258 66.9814 223.069 67.9479C222.69 69.8783 221.454 71.638 219.682 72.4876C218.686 72.9629 217.58 73.1478 216.486 73.0215C215.462 72.8871 214.503 72.434 213.743 71.7245C213.539 71.5816 213.301 71.4965 213.055 71.478C212.969 71.4672 212.658 71.4434 212.822 71.5926C213.707 72.3544 214.751 72.9032 215.875 73.1978C216.998 73.4924 218.173 73.5253 219.311 73.2939C220.355 73.0549 221.321 72.5479 222.117 71.8216C222.912 71.0952 223.511 70.1738 223.855 69.1455C224.214 68.1248 224.305 67.0266 224.118 65.9594C223.931 64.8923 223.473 63.893 222.79 63.0602C222.057 62.1949 221.142 61.5081 220.112 61.0507C219.082 60.5934 217.964 60.3774 216.84 60.4186V60.4186Z" fill="white"/>
<path d="M246.073 56.2917C243.931 55.5909 241.624 55.5981 239.486 56.3125C237.347 57.0268 235.488 58.4114 234.174 60.2668C232.861 62.1222 232.161 64.3527 232.177 66.6372C232.193 68.9216 232.922 71.1422 234.261 72.979C235.599 74.8159 237.478 76.1743 239.625 76.8586C241.773 77.543 244.08 77.518 246.213 76.7872C248.346 76.0564 250.195 74.6576 251.494 72.7921C252.794 70.9267 253.477 68.6908 253.444 66.4065C253.413 64.1499 252.685 61.96 251.363 60.1453C250.041 58.3307 248.191 56.9829 246.073 56.2917V56.2917ZM242.953 76.7051C240.976 76.7335 239.036 76.1665 237.376 75.0759C235.717 73.9852 234.414 72.4198 233.632 70.5776C232.85 68.7355 232.623 66.6992 232.981 64.7264C233.339 62.7536 234.265 60.9328 235.643 59.4942C237.021 58.0557 238.788 57.064 240.721 56.6445C242.654 56.2251 244.666 56.3967 246.503 57.1377C248.34 57.8787 249.919 59.1559 251.041 60.8076C252.163 62.4594 252.777 64.4116 252.805 66.4173C252.839 69.1061 251.82 71.6988 249.974 73.6272C248.127 75.5556 245.602 76.6624 242.953 76.7051V76.7051Z" fill="white"/>
<path d="M242.422 60.3126C241.217 60.3734 240.052 60.7707 239.055 61.4607C238.058 62.1508 237.268 63.1067 236.773 64.2232C236.715 64.3572 237.71 64.7247 237.795 64.5194C238.193 63.6132 238.79 62.8116 239.541 62.1764C240.292 61.5412 241.176 61.0892 242.126 60.8552C242.993 60.619 243.906 60.6287 244.768 60.8833C245.651 61.195 246.446 61.7229 247.081 62.4203C247.755 63.1298 248.25 63.9942 248.523 64.9398C248.797 65.8854 248.841 66.8841 248.651 67.8506C248.272 69.7789 247.036 71.5407 245.264 72.3903C244.268 72.8639 243.162 73.0487 242.069 72.9242C241.044 72.7889 240.086 72.3359 239.325 71.6272C239.12 71.4842 238.882 71.3991 238.635 71.3807C238.552 71.3678 238.238 71.3462 238.405 71.4932C239.289 72.2548 240.332 72.8035 241.456 73.0981C242.579 73.3927 243.754 73.4256 244.891 73.1944C245.938 72.9588 246.907 72.4539 247.706 71.7281C248.505 71.0023 249.106 70.0802 249.452 69.0504C249.811 68.0293 249.902 66.9308 249.715 65.8633C249.528 64.7958 249.071 63.7961 248.387 62.9629C247.654 62.0935 246.737 61.4035 245.704 60.9445C244.671 60.4856 243.549 60.2696 242.422 60.3126V60.3126Z" fill="white"/>
<path d="M94.8511 29.2231C95.0151 28.2934 94.5581 27.5825 93.48 27.0903L91.2183 26.1879C88.5933 25.0161 87.3472 23.4028 87.48 21.3481C87.5347 20.395 87.8472 19.5512 88.4175 18.8168C88.9878 18.0825 89.7886 17.5082 90.8198 17.0942C91.8511 16.6723 92.9644 16.4692 94.1597 16.4848C95.8081 16.5161 97.1401 17.0082 98.1558 17.9614C99.1714 18.9067 99.6714 20.1762 99.6558 21.77H96.2339C96.2729 20.9965 96.1011 20.395 95.7183 19.9653C95.3433 19.5356 94.7573 19.3129 93.9604 19.2973C93.1792 19.2817 92.4995 19.4614 91.9214 19.8364C91.3433 20.2036 90.9995 20.7114 90.8901 21.3598C90.7417 22.2114 91.312 22.8871 92.6011 23.3871L94.1479 23.9731L95.0386 24.3832C97.3433 25.5239 98.4214 27.1254 98.2729 29.1879C98.2026 30.1957 97.8784 31.0668 97.3003 31.8012C96.73 32.5278 95.9487 33.0864 94.9565 33.477C93.9722 33.8676 92.8862 34.0512 91.6987 34.0278C90.4878 34.0043 89.4097 33.7504 88.4644 33.2661C87.519 32.7817 86.8003 32.0981 86.3081 31.2153C85.8472 30.395 85.6323 29.4575 85.6636 28.4028L89.0972 28.4145C88.9878 30.2661 89.8979 31.2075 91.8276 31.2387C92.6636 31.2387 93.3511 31.0551 93.8901 30.6879C94.4292 30.3207 94.7495 29.8325 94.8511 29.2231ZM114.843 19.5668H109.781L107.32 33.7817H103.886L106.347 19.5668H101.343L101.847 16.7192H115.347L114.843 19.5668ZM121.746 27.5356H118.957L117.867 33.7817H114.433L117.398 16.7192L123.046 16.7309C124.937 16.7309 126.39 17.1762 127.406 18.0668C128.429 18.9575 128.882 20.1957 128.765 21.7817C128.601 24.1254 127.351 25.7543 125.015 26.6684L127.417 33.5942V33.7817H123.761L121.746 27.5356ZM119.449 24.6879L122.003 24.7114C122.91 24.6957 123.656 24.4536 124.242 23.9848C124.835 23.5082 125.191 22.8637 125.308 22.0512C125.417 21.2934 125.296 20.6996 124.945 20.27C124.593 19.8403 124.035 19.6098 123.269 19.5786L120.339 19.5668L119.449 24.6879ZM144.972 16.7192L143.05 27.9692C142.785 29.852 142.003 31.3403 140.707 32.434C139.41 33.5278 137.8 34.059 135.878 34.0278C134.675 34.0043 133.628 33.7426 132.738 33.2426C131.855 32.7348 131.203 32.0239 130.781 31.1098C130.359 30.1879 130.214 29.145 130.347 27.9809L132.257 16.7192H135.691L133.781 27.9926C133.726 28.4301 133.722 28.8403 133.769 29.2231C133.925 30.4887 134.679 31.145 136.031 31.1918C137 31.2231 137.792 30.9575 138.41 30.395C139.027 29.8325 139.425 29.0278 139.605 27.9809L141.527 16.7192H144.972ZM158.531 31.6254C157.921 32.3989 157.027 32.9965 155.847 33.4184C154.675 33.8325 153.351 34.0278 151.875 34.0043C150.71 33.9965 149.687 33.7426 148.804 33.2426C147.921 32.7348 147.226 32.0082 146.718 31.0629C146.21 30.1176 145.921 29.0395 145.851 27.8286C145.773 26.7036 145.89 25.3832 146.203 23.8676C146.523 22.3442 147.066 21.0121 147.832 19.8715C148.605 18.7231 149.531 17.8676 150.609 17.3051C151.687 16.7348 152.882 16.4614 154.195 16.4848C155.976 16.5161 157.371 17.02 158.378 17.9965C159.386 18.9653 159.96 20.3559 160.101 22.1684L156.796 22.1567C156.71 21.2036 156.457 20.5004 156.035 20.0473C155.613 19.5942 154.984 19.352 154.148 19.3207C152.703 19.2739 151.562 19.9106 150.726 21.2309C149.898 22.5434 149.425 24.4496 149.308 26.9496C149.23 28.2856 149.433 29.3207 149.917 30.0551C150.41 30.7895 151.156 31.1645 152.156 31.1801C153.32 31.2114 154.312 30.934 155.132 30.3481L155.707 27.4067H152.589L153.046 24.8168H159.562L158.531 31.6254ZM170.871 30.2661H164.917L163.16 33.7817H159.375L168.492 16.7192H171.667L174.914 33.7817H171.41L170.871 30.2661ZM166.324 27.4184H170.437L169.476 21.0668L166.324 27.4184ZM183.949 27.5356H181.16L180.07 33.7817H176.636L179.601 16.7192L185.25 16.7309C187.14 16.7309 188.593 17.1762 189.609 18.0668C190.632 18.9575 191.085 20.1957 190.968 21.7817C190.804 24.1254 189.554 25.7543 187.218 26.6684L189.621 33.5942V33.7817H185.964L183.949 27.5356ZM181.652 24.6879L184.207 24.7114C185.113 24.6957 185.859 24.4536 186.445 23.9848C187.039 23.5082 187.394 22.8637 187.511 22.0512C187.621 21.2934 187.5 20.6996 187.148 20.27C186.796 19.8403 186.238 19.6098 185.472 19.5786L182.542 19.5668L181.652 24.6879ZM202.875 26.3871H196.335L195.539 30.9575H203.226L202.734 33.7817H191.613L194.578 16.7192H205.675L205.171 19.5668H197.519L196.804 23.6332H203.367L202.875 26.3871ZM211.335 26.9731L209.085 29.059L208.265 33.7817H204.832L207.796 16.7192H211.23L209.917 24.2426L211.664 22.2739L216.796 16.7192H221.273L213.902 24.477L218.296 33.7817H214.382L211.335 26.9731Z" fill="white"/>
<path d="M126.269 41.3673H123.777L122.929 42.961H122.41L125.484 37.2735H125.941L127.039 42.961H126.566L126.269 41.3673ZM123.992 40.9571H126.191L125.628 37.8751L123.992 40.9571ZM132.64 37.2735L131.98 41.1212C131.886 41.7201 131.635 42.1928 131.226 42.5392C130.817 42.8855 130.32 43.0535 129.734 43.0431C129.367 43.0352 129.049 42.9506 128.781 42.7892C128.515 42.6277 128.321 42.4011 128.199 42.1095C128.079 41.8178 128.041 41.491 128.085 41.129L128.746 37.2735H129.218L128.562 41.1329C128.507 41.573 128.588 41.9298 128.804 42.2032C129.02 42.474 129.338 42.6173 129.757 42.6329C130.195 42.6485 130.571 42.5274 130.886 42.2696C131.201 42.0118 131.402 41.6537 131.488 41.1954L132.16 37.2735H132.64ZM137.632 37.6837H135.746L134.828 42.961H134.351L135.269 37.6837H133.378L133.453 37.2735H137.707L137.632 37.6837ZM139.496 43.0392C138.964 43.0287 138.542 42.8451 138.23 42.4884C137.92 42.129 137.752 41.6498 137.726 41.0509C137.716 40.8425 137.725 40.6355 137.753 40.4298L137.832 39.8907C137.949 39.0964 138.235 38.448 138.691 37.9454C139.157 37.4324 139.733 37.1824 140.417 37.1954C140.766 37.2032 141.071 37.2892 141.332 37.4532C141.595 37.6147 141.799 37.8517 141.945 38.1642C142.091 38.474 142.17 38.8152 142.183 39.1876C142.191 39.4115 142.179 39.6303 142.148 39.8438L142.058 40.4454C141.967 40.9819 141.798 41.4506 141.55 41.8517C141.306 42.2527 141.007 42.5535 140.656 42.754C140.304 42.9519 139.917 43.047 139.496 43.0392ZM141.679 39.8009C141.7 39.6368 141.712 39.4701 141.714 39.3009C141.714 38.9832 141.665 38.6941 141.566 38.4337C141.467 38.1733 141.317 37.974 141.117 37.836C140.919 37.6954 140.678 37.6212 140.394 37.6134C139.873 37.6004 139.429 37.7879 139.062 38.1759C138.695 38.5613 138.453 39.0834 138.335 39.7423C138.242 40.2761 138.196 40.6707 138.199 40.9259C138.199 41.4519 138.313 41.8634 138.542 42.1602C138.774 42.4571 139.1 42.6108 139.519 42.6212C140.074 42.6342 140.532 42.4337 140.894 42.0196C141.259 41.6056 141.492 41.0587 141.593 40.379L141.679 39.8009ZM144.531 40.6485H142.707L142.777 40.254H144.601L144.531 40.6485ZM148.605 40.2345H146.027L145.621 42.5548H148.589L148.519 42.961H145.074L146.062 37.2735H149.488L149.414 37.6837H146.468L146.093 39.8282H148.675L148.605 40.2345ZM150.078 42.5548H152.804L152.734 42.961H149.527L150.515 37.2735H150.996L150.078 42.5548ZM157.191 40.2345H154.613L154.207 42.5548H157.175L157.105 42.961H153.66L154.648 37.2735H158.074L158 37.6837H155.054L154.679 39.8282H157.261L157.191 40.2345ZM159.871 40.1446L158.941 40.9454L158.589 42.961H158.113L159.101 37.2735H159.578L159.05 40.3048L159.96 39.4845L162.375 37.2735H163.011L160.234 39.8282L162.164 42.961H161.625L159.871 40.1446ZM167.718 37.6837H165.832L164.914 42.961H164.437L165.355 37.6837H163.464L163.539 37.2735H167.792L167.718 37.6837ZM170.21 40.5938H168.605L168.191 42.961H167.71L168.699 37.2735L170.382 37.2774C170.95 37.2774 171.388 37.4259 171.695 37.7227C172.002 38.017 172.131 38.4155 172.082 38.9181C172.042 39.2983 171.899 39.6264 171.652 39.9024C171.407 40.1785 171.08 40.379 170.671 40.504L171.64 42.9063L171.636 42.961H171.128L170.21 40.5938ZM168.675 40.1837L170.082 40.1876C170.483 40.1876 170.825 40.0704 171.109 39.836C171.395 39.599 171.561 39.2918 171.605 38.9142C171.649 38.5496 171.569 38.2566 171.363 38.0352C171.157 37.8139 170.854 37.698 170.453 37.6876L169.109 37.6837L168.675 40.1837ZM174.562 40.3673L176.781 37.2735H177.359L174.73 40.8438L174.363 42.961H173.886L174.265 40.7931L172.898 37.2735H173.433L174.562 40.3673ZM178.949 40.1446L178.019 40.9454L177.667 42.961H177.191L178.179 37.2735H178.656L178.128 40.3048L179.039 39.4845L181.453 37.2735H182.089L179.312 39.8282L181.242 42.961H180.703L178.949 40.1446Z" fill="white"/>
</g>
<defs>
<clipPath id="clip0">
<rect width="268" height="78" fill="white"/>
</clipPath>
</defs>
</svg>
