<svg xmlns="http://www.w3.org/2000/svg" width="12" height="12" fill="#fff" xmlns:v="https://vecta.io/nano"><path d="M5.431 11.368c-.234.016-.436.013-.482-.006-.038-.016.043-.091.144-.164.117-.085.01-.173-.046-.217-.189-.149-.369-.31-.538-.482-.042-.043-.14-.129-.328-.126-.298.005-.674.016-.722-.004-.034-.014.164-.161.358-.298.168-.12.1-.273.052-.344-.156-.227-.297-.465-.423-.714-.026-.052-.106-.15-.286-.153-.283-.004-.604.013-.648-.005-.034-.015.215-.222.466-.407.058-.042.15-.141.095-.342l-.22-.882c-.013-.074-.084-.222-.271-.218-.257.007-.516.01-.555-.006-.034-.014.223-.217.505-.403.076-.049.196-.086.219-.345.006-.073-.005-.147-.005-.222 0-.25.01-.496.042-.737.03-.224-.122-.269-.206-.265l-.559.007c-.038-.016.336-.253.697-.45a.52.52 0 0 0 .265-.316l.292-.822c.106-.238-.111-.278-.22-.276-.278.005-.505.018-.55 0s.436-.261.881-.424c.103-.038.292-.112.469-.362l.42-.546c.136-.176-.014-.2-.104-.2l-.693.001c-.048-.019.71-.277 1.166-.379.099-.022.238-.054.42-.187l.464-.335c.144-.09.027-.108-.039-.109-.378-.005-.723.024-.779.001s.966-.186 1.367-.21C6.43.244 7.031.099 7.42 0l-.219.003H4.937c-.127.014-.672-.006-.771 0-.257.024-.434.048-.68.135-.162.058-.215.242-.104.281.122.043.588.186.531.211-.047.021-.662 0-1.048-.024-.154-.01-.367-.022-.457.036-.229.147-.158.115-.371.305-.085.075-.106.238.016.288s.688.384.611.418c-.065.029-.86.078-1.054.062s-.294-.006-.369.089c-.186.235-.206.318-.36.594-.061.109-.056.305.037.347s.532.226.799.423c-.302-.022-.886.087-1.017.087s-.235.006-.281.128c-.118.309-.139.426-.214.753-.029.131.024.263.138.321s.98.576.892.572c-.147-.007-.905.152-1.019.154s-.189.081-.202.214c-.024.249-.013.249-.013.503l.005.273c.005.132.139.276.264.329.171.072 1.051.454.972.489-.065.029-.86.115-.941.118-.185.005-.207.168-.186.302.054.335.059.397.157.717.029.096.124.183.223.212s1.341.477 1.262.512c-.065.029-.81.155-.928.159-.156.007-.14.204-.068.346.144.287.076.199.249.455a.61.61 0 0 0 .245.149c.098.019 1.512.37 1.433.405-.065.029-.821.061-.961.068s-.122.192-.042.277c.203.214.155.178.375.347.125.096.416.088.435.101l1.441.217c-.065.029-.517.073-.947.118-.136-.005-.027.162.071.204a3.56 3.56 0 0 0 .75.24c.01.002.019.003.028.003.091 0 .66.048.761.048l2.732.012c-.498-.127-1.163-.321-1.624-.572-.039-.021-.138-.068-.277-.058z"/><path d="M11.981 5.445c-.009-.136-.089-.234-.201-.225l-.073-.487c.106-.036.165-.173.138-.305a7.45 7.45 0 0 0-.265-.969c-.042-.125-.265-.177-.265-.177l-.172-.369a.3.3 0 0 0 .054-.348 5.99 5.99 0 0 0-.493-.793c-.072-.097-.341-.087-.343-.083a2.94 2.94 0 0 0-.208-.235c.068-.117.048-.272-.034-.352-.211-.2-.434-.377-.664-.525C9.36.52 8.957.572 8.957.572L8.854.526C8.887.387 8.829.25 8.732.212 8.485.12 8.23.054 7.973.02A5.76 5.76 0 0 0 7.429 0a5.46 5.46 0 0 0-1.134.492c.347.036-.437.524-.377.238a5.51 5.51 0 0 0-.646.521c.332.028-.286.72-.387.4a5.96 5.96 0 0 0-.698.986c.302-.08-.062.798-.275.551a6.49 6.49 0 0 0-.399 1.226c.281-.091.148.708-.105.594-.044.328-.067.67-.067 1.022l.003.219c.273-.102.406.63.042.636a6.98 6.98 0 0 0 .252 1.25c.166-.144.597.49.211.591.145.35.318.677.515.979.102-.173.622.393.325.449a5.65 5.65 0 0 0 .759.781c.045-.165.587.196.375.292.468.333.98.591 1.52.771l.454.002c.275-.009.409-.036.523-.065.1-.026.3-.3.3-.3l.436-.015c.022 0 .045-.005.067-.017.238-.123.471-.275.692-.452.088-.07.116-.222.063-.339l.219-.223c.001.003.169.018.221.018.042 0 .086-.02.12-.06.195-.224.377-.472.54-.738a.31.31 0 0 0-.025-.348l.187-.371c.002.002.083-.006.114-.006.064 0 .125-.045.16-.125a7.08 7.08 0 0 0 .322-.937c.034-.129-.016-.27-.112-.317l.089-.484c.016.007.027.008.037.008.089 0 .167-.085.183-.205.043-.337.066-.684.066-1.029l-.019-.548zm-4.16 4.368c-1.424 0-2.578-1.707-2.578-3.812s1.154-3.813 2.578-3.813 2.577 1.707 2.577 3.813-1.153 3.812-2.577 3.812z"/></svg>