<svg xmlns="http://www.w3.org/2000/svg" width="24" height="24" fill="none" xmlns:v="https://vecta.io/nano"><g clip-path="url(#A)" fill="#fff"><path d="M13.31 7.176a.35.35 0 0 0-.497 0l-.386.386a.35.35 0 1 0 .498.497l.386-.386a.35.35 0 0 0 0-.497zm.324 1.945a.35.35 0 0 0 .249-.103l.386-.386a.351.351 0 1 0-.497-.497l-.386.386a.35.35 0 0 0 .249.6zm1.096-.028l-.386.386a.35.35 0 1 0 .498.497l.386-.386a.351.351 0 1 0-.497-.497zm.572 1.842a.35.35 0 0 0 .497 0l.386-.386a.351.351 0 1 0-.497-.497l-.386.386a.35.35 0 0 0 0 .497zM2.901 19.963l-.649.649a.351.351 0 1 0 .497.497l.649-.649a.351.351 0 1 0-.497-.497zm13.449-2.636l-2.1-1.213c-.235-.136-.527-.136-.763 0l-2.101 1.213c-.235.136-.381.389-.381.661v2.425c0 .272.146.525.381.661l2.101 1.213c.118.068.25.102.381.102a.76.76 0 0 0 .381-.102l2.1-1.213c.235-.136.381-.389.381-.661v-2.425c0-.272-.146-.525-.382-.661zm-.322 3.086a.06.06 0 0 1-.03.052l-2.1 1.213a.06.06 0 0 1-.06 0l-2.1-1.213a.06.06 0 0 1-.03-.052v-2.425a.06.06 0 0 1 .03-.052l2.1-1.213a.06.06 0 0 1 .06 0l2.101 1.213a.06.06 0 0 1 .03.052v2.425h0zm-2.16-2.511A1.3 1.3 0 0 0 12.57 19.2a1.3 1.3 0 0 0 1.298 1.298 1.3 1.3 0 0 0 1.298-1.298 1.3 1.3 0 0 0-1.298-1.298zm0 1.892c-.328 0-.595-.267-.595-.594s.267-.595.595-.595.595.267.595.595-.267.595-.595.595zm5.971-3.431a1.3 1.3 0 0 0 1.298 1.298 1.3 1.3 0 0 0 1.298-1.298 1.3 1.3 0 0 0-1.298-1.298 1.3 1.3 0 0 0-1.298 1.298zm1.892 0c0 .328-.267.595-.594.595s-.595-.267-.595-.595.267-.594.595-.594.595.267.595.594zm1.888-1.873l-2.1-1.213c-.235-.136-.527-.136-.763 0l-2.1 1.213c-.235.136-.381.389-.381.661v2.425c0 .272.146.525.381.661l2.1 1.213c.118.068.25.102.382.102a.76.76 0 0 0 .381-.102l.753-.435a.35.35 0 1 0-.351-.609l-.754.435a.06.06 0 0 1-.06 0l-2.1-1.213c-.018-.011-.03-.03-.03-.052v-2.425a.06.06 0 0 1 .03-.052l2.101-1.213c.018-.011.041-.011.059 0l2.101 1.213a.06.06 0 0 1 .03.052v2.425a.06.06 0 0 1-.03.052l-.126.073a.352.352 0 0 0 .352.609l.126-.073c.235-.136.381-.389.381-.661v-2.425c0-.272-.146-.525-.381-.661zm-8.499-1.36c2.083.432 4.233-.202 5.746-1.715 1.781-1.781 2.284-4.377 1.466-6.623a.35.35 0 0 0-.254-.223c-.117-.026-.24.01-.325.095l-2.888 2.888-2.409-.646-.646-2.409.346-.346a.351.351 0 1 0-.497-.497l-.49.49a.35.35 0 0 0-.091.34l.751 2.801a.35.35 0 0 0 .249.249l2.801.751c.121.032.251-.002.34-.091l2.619-2.619a5.63 5.63 0 0 1-1.469 5.345 5.59 5.59 0 0 1-5.106 1.524 2.91 2.91 0 0 0-2.767.91L5.029 21.8c-.236.274-.517.486-.839.634a.352.352 0 0 0 .294.639c.414-.19.775-.463 1.073-.809l7.465-8.446c.517-.585 1.321-.849 2.098-.688zM2.96 22.65a2.46 2.46 0 0 1-1.538-.711c-1.007-1.007-.957-2.664.136-3.603l8.452-7.47a2.91 2.91 0 0 0 .91-2.767 5.59 5.59 0 0 1 1.524-5.106 5.63 5.63 0 0 1 5.345-1.469l-1.135 1.135a.35.35 0 0 0 0 .497c.137.137.36.137.497 0l1.548-1.548a.35.35 0 0 0-.128-.579C16.324.21 13.728.714 11.948 2.495a6.29 6.29 0 0 0-1.715 5.746c.161.777-.102 1.581-.688 2.098l-8.446 7.465c-1.392 1.198-1.473 3.332-.173 4.632a3.16 3.16 0 0 0 1.978.915.352.352 0 1 0 .057-.701z"/></g><defs><clipPath id="A"><path fill="#fff" d="M0 0h24v24H0z"/></clipPath></defs></svg>