<svg xmlns="http://www.w3.org/2000/svg" width="42" height="36" fill="none" xmlns:v="https://vecta.io/nano"><path d="M31.312 23.442c-1.153-.424-2.176-.129-3.081.126-.927.264-2.745 1.076-3.626.63-4.478-2.476-8.348-6.743-9.585-11.073-.202-.853 1.349-1.983 1.97-2.617.602-.613 1.283-1.31 1.213-2.353-.065-.938-2.411-4.507-3.284-5.524-.576-.672-1.212-1.097-1.911-1.271-2.645-.564-6.138 1.871-6.785 2.487C4.65 5.127 4.303 7.137 5.194 9.805c2.029 7.103 12.325 19.098 19.719 23.239 1.354.823 2.634 1.342 3.828 1.552 1.169.206 2.257.118 3.247-.264.732-.205 4.887-2.153 5.192-4.447.044-.591-.218-1.235-.773-1.913-.846-1.034-4.058-4.154-5.095-4.53z" fill="#fff"/></svg>