<svg xmlns="http://www.w3.org/2000/svg" width="24" height="24" fill="none" xmlns:v="https://vecta.io/nano"><g clip-path="url(#A)" fill="#fff"><path d="M18.9 1.267c-.597-.562-1.361-.832-2.131-.832a3.4 3.4 0 0 0-2.395.995l-.28.28-.28-.281a3.4 3.4 0 0 0-2.395-.995c-.77 0-1.534.27-2.131.832-1.313 1.236-1.336 3.304-.07 4.57l4.877 4.877 4.877-4.877c1.266-1.266 1.243-3.334-.07-4.57zm-.535 3.965l-4.271 4.271-4.271-4.271a2.31 2.31 0 0 1-.681-1.681 2.31 2.31 0 0 1 .733-1.66c.41-.386.958-.599 1.544-.599a2.55 2.55 0 0 1 1.789.744l.28.281.606.606.606-.606.28-.28a2.55 2.55 0 0 1 1.79-.744c.586 0 1.134.212 1.544.599a2.31 2.31 0 0 1 .733 1.66 2.31 2.31 0 0 1-.681 1.681zm5.322 7.966c-.75-.508-1.633-.364-2.415.087s-5.273 4.291-5.273 4.291l-4.42.001c-.206 0-.428-.231-.428-.436a.44.44 0 0 1 .428-.428h2.705c.947 0 2.006-.617 2.006-1.713 0-1.165-1.06-1.713-2.006-1.713l-1.962.007c-.658 0-1.325-.039-1.839-.314-.685-.351-1.475-.55-2.318-.55-1.415 0-2.682.565-3.551 1.455L0 18.425l5.14 5.14 1.713-1.713h8.675a3.53 3.53 0 0 0 2.342-.89l5.874-6.59c.359-.319.338-.905-.058-1.174zm-6.42 7.152a2.67 2.67 0 0 1-1.738.644l-9.09.002-1.299 1.357-3.924-3.923 4.01-3.948c.741-.76 1.812-1.196 2.938-1.196a4.25 4.25 0 0 1 1.914.446c.684.366 1.482.416 2.244.416l1.962-.007c.011 0 1.15.009 1.15.857 0 .584-.686.857-1.15.857h-2.776c-.597 0-1.228.433-1.228 1.342 0 .677.547 1.228 1.228 1.228l4.796-.001 5.453-4.429c.407-.223.903-.37 1.323-.164l-5.812 6.519z"/></g><defs><clipPath id="A"><path fill="#fff" d="M0 0h24v24H0z"/></clipPath></defs></svg>