<svg xmlns="http://www.w3.org/2000/svg" width="20" height="30" fill="none" xmlns:v="https://vecta.io/nano"><path d="M18.611 5.137C16.846 1.995 13.71.076 10.224.002c-.149-.003-.299-.003-.448 0C6.29.076 3.154 1.995 1.389 5.137a10.73 10.73 0 0 0-.132 10.32L8.47 29.074l.01.018c.317.569.886.909 1.521.909s1.203-.34 1.521-.909l.01-.018 7.212-13.616a10.73 10.73 0 0 0-.132-10.32zM10 13.594c-2.255 0-4.09-1.893-4.09-4.219S7.745 5.156 10 5.156s4.09 1.893 4.09 4.219-1.835 4.219-4.09 4.219z" fill="#fff"/></svg>