<svg xmlns="http://www.w3.org/2000/svg" width="36" height="30" fill="none" xmlns:v="https://vecta.io/nano"><path fill-rule="evenodd" d="M26.89 0c2.414 0 4.736.883 6.444 2.468S36 6.183 36 8.417v13.167C36 26.233 31.914 30 26.89 30H9.108C4.084 30 0 26.233 0 21.583V8.417C0 3.767 4.066 0 9.108 0H26.89zm2.864 10.9l.144-.133c.43-.483.43-1.183-.02-1.667-.25-.248-.594-.4-.952-.433-.378-.018-.738.1-1.01.333L19.8 15c-1.044.802-2.54.802-3.6 0L8.1 9c-.56-.383-1.334-.333-1.8.117-.486.45-.54 1.167-.128 1.667l.236.217 8.19 5.917a5.95 5.95 0 0 0 3.51 1.133c1.276 0 2.52-.4 3.526-1.133l8.12-6.017z" fill="#fff"/></svg>