<svg xmlns="http://www.w3.org/2000/svg" width="268" height="78" fill="none" xmlns:v="https://vecta.io/nano"><g clip-path="url(#A)" fill="#fff"><path d="M26.592 60.503a6.01 6.01 0 0 0-3.373 1.038 6.14 6.14 0 0 0-2.236 2.765c-.459 1.126-.58 2.365-.346 3.56a6.19 6.19 0 0 0 1.662 3.155c.849.862 1.931 1.448 3.108 1.686a5.99 5.99 0 0 0 3.508-.351 6.09 6.09 0 0 0 2.725-2.269c.667-1.013 1.023-2.204 1.023-3.423-.002-1.633-.642-3.199-1.78-4.354a6.03 6.03 0 0 0-4.291-1.806h0zm0 11.673a5.37 5.37 0 0 1-3.018-.929 5.5 5.5 0 0 1-2.001-2.474 5.59 5.59 0 0 1-.309-3.185c.21-1.069.727-2.052 1.487-2.822a5.41 5.41 0 0 1 2.782-1.508 5.36 5.36 0 0 1 3.139.315 5.45 5.45 0 0 1 2.437 2.031 5.57 5.57 0 0 1 .914 3.063 5.56 5.56 0 0 1-1.594 3.893 5.4 5.4 0 0 1-3.838 1.615v.002zm0-16.306c-2.104 0-4.16.633-5.909 1.819a10.77 10.77 0 0 0-3.918 4.844 10.94 10.94 0 0 0-.605 6.236c.41 2.094 1.423 4.017 2.911 5.526a10.59 10.59 0 0 0 5.446 2.954c2.063.416 4.202.203 6.145-.614a10.67 10.67 0 0 0 4.773-3.975 10.91 10.91 0 0 0 1.792-5.997 10.89 10.89 0 0 0-3.12-7.628c-1.994-2.023-4.697-3.162-7.517-3.166h0zm0 20.939c-1.977 0-3.91-.595-5.554-1.71s-2.925-2.699-3.682-4.553a10.28 10.28 0 0 1-.569-5.861 10.2 10.2 0 0 1 2.736-5.195 9.95 9.95 0 0 1 5.119-2.776 9.86 9.86 0 0 1 5.776.577 10.03 10.03 0 0 1 4.487 3.736c1.098 1.668 1.685 3.63 1.685 5.636-.004 2.689-1.059 5.267-2.933 7.169a9.94 9.94 0 0 1-7.065 2.976zm241.053-22.921l-102.761-2.78-102.816-2.782c-.773-6.825-2.245-13.993-3.67-20.928-1.414-6.887-2.876-13.995-3.649-20.768l150.236 3.459 40.434.707 10.473.056a62.54 62.54 0 0 0 2.677-.052c.852-.037 1.206-.052 1.244-.432l.013-.164-.102-.119c-.166-.195-.339-.396-14.94-1.198l-42.121-2.054L42.061.004 41.664 0l.032.402a82.82 82.82 0 0 0 .213 2.345c-.396-.584-.809-1.157-1.246-1.716a.6.6 0 0 1-.023-.03c-.164-.216-.332-.419-.501-.625l-1.014.123-.149.022a70.88 70.88 0 0 0-9.507 1.946 73.24 73.24 0 0 0-9.277 3.243 71.74 71.74 0 0 0-8.792 4.505c-.883.54-1.756 1.095-2.618 1.662l-1.195.813-.447 1.451c-.724 2.391-1.395 4.796-2.011 7.216l-.488 1.98-.245 1.04a168.5 168.5 0 0 0-2.576 13.49l-.115.811-.166 1.157A167.19 167.19 0 0 0 .188 54.571v.143l-.04.986a165.63 165.63 0 0 0-.023 13.26l.04.962 1.029.175 7.624 1.297 5.828.99.675.115c-.066-.329-.126-.649-.181-.986a25.59 25.59 0 0 1 .162-9.559c.411-1.896.799-3.675 2.166-5.404 3.059-3.826 9.448-5.251 14.241-3.173 2.198.953 3.783 2.521 4.953 4.313a15.31 15.31 0 0 1 .541.895c1.617 2.895 2.29 6.183 2.739 8.385a26.08 26.08 0 0 1 .494 3.98l.023.661.639-.019a539.59 539.59 0 0 1 16.085-.192 540.83 540.83 0 0 1 24.924.649l3.487.181.697.041a10.47 10.47 0 0 1-.213-.616c-1.581-4.842-.758-10.048 2.467-13.414a4.84 4.84 0 0 1 .213-.216c.24-.236.487-.457.741-.661h-.03c.23-.19.464-.365.703-.53a9.82 9.82 0 0 1 1.261-.737c3.372-1.66 7.456-1.375 10.507-.143l.454.192c.345.156.677.326 1.001.508 5.828 3.26 8.167 10.504 7.183 16.334a14.69 14.69 0 0 1-.175.882c0 .037-.019.069-.027.106l.583.238.049-.19c.06-.264.113-.53.16-.796a17.7 17.7 0 0 0-1.184-9.888c-1.125-2.713-2.996-5.039-5.39-6.701l56.588-.612 106.47-1.412c.095 0 .187-.038.254-.107s.106-.162.106-.258-.038-.19-.106-.258a.36.36 0 0 0-.254-.107l-.009.004zM8.341 13.288a92.44 92.44 0 0 1 2.85-1.885C19.519 6.198 28.804 2.768 38.48 1.321l1.042-.147a32.62 32.62 0 0 1 2.695 3.919 32.49 32.49 0 0 1 1.012 1.861 32.94 32.94 0 0 1 1.77 4.237 53.84 53.84 0 0 1 1.016 3.431l-.533.078-.639.082-.709.093-4.341.592-.79.123 5.255-.197.726-.026 1.206-.045.471-.017.03.074 1.242 3.037 3.668 8.917h-4.154l.134.29.426.938.867 1.885.45.977 1.148 2.495 3.877 8.431-2.982-3.394-.2-.216-.852-.96-.426-.488-6.838-7.782-.767-.865-4.751-5.448 5.656-.324-4.145-6.455-.484-.77-.692.108c-3.239.506-6.468 1.076-9.686 1.71l-.929.182-.375.073a232.24 232.24 0 0 0-12.852 2.972 241.94 241.94 0 0 0-8.353 2.339 164.21 164.21 0 0 1 2.669-9.743zm19.545 5.117a247.66 247.66 0 0 1 10.464-1.881l3.698 5.763-5.875.337 5.389 6.126-11.337 2.289-7.219 1.623.98-2.62c1.352-3.688 2.604-7.412 3.756-11.172.049-.149.096-.309.145-.467zM5.429 24.062c2.571-.78 5.153-1.518 7.748-2.216a239.24 239.24 0 0 1 12.698-3.026l1.065-.216-1.38 4.323a211.54 211.54 0 0 1-3.604 10.005 273.57 273.57 0 0 0-8.423 2.162c-3.624.983-7.224 2.064-10.8 3.243.693-4.796 1.592-9.554 2.697-14.274zM2.544 39.651c0-.054.017-.11.023-.164a210.93 210.93 0 0 1 9.524-2.953 243.97 243.97 0 0 1 9.422-2.467l1.046-.255 6.21-1.422 13.559-2.763 7.733 8.816.626.711.015.058-.509.151-14.999 4.436-19.515 5.934-14.486 4.518a170.1 170.1 0 0 1 1.351-14.6zm29.41 13.137c-5.113-2.22-11.716-.744-14.988 3.361-1.457 1.831-1.86 3.692-2.288 5.677a26.16 26.16 0 0 0-.213 9.585L3.761 69.593l-2.62-.445a166.63 166.63 0 0 1-.034-12.776c0-.329.028-.649.04-.984l12.421-3.891 19.511-5.953 17.255-5.117.04.281 1.873 15.24.138 1.297-5.869.132-9.115.294c-1.236-2.021-2.968-3.811-5.447-4.883zm53.439 18.84L70.36 70.98a541.12 541.12 0 0 0-24.943-.138l-4.348.095c-.063-1.376-.233-2.745-.507-4.094-.445-2.177-1.101-5.381-2.646-8.282l14.699-.411.739-.015 5.26-.08 27.242.13 1.838.043c-3.01 3.487-3.777 8.604-2.294 13.401h-.006zm75.769-16.317l-57.747.627c-.254-.136-.509-.266-.771-.385-3.541-1.595-8.649-1.946-12.539.566a10.09 10.09 0 0 0-1.001.733 9.86 9.86 0 0 0-.556.491l-14.79-.236h-.852a810.26 810.26 0 0 0-18.902.108h-.552L51.9 44.113l-.226-1.729-.311-2.263-.032-.238.388.432 5.053 5.757-6.646-14.445-1.466-3.186-.151-.329c0-.043-.013-.087-.021-.13h4.073L47.108 14.72l-.055-.216a55.39 55.39 0 0 0-.579-2.084 35.55 35.55 0 0 0-3.677-8.312 67.47 67.47 0 0 1-.362-3.362L253.86 10.16c-22.154-.026-107.978-2.03-199.497-4.252h-.407l.045.409c.763 6.918 2.26 14.203 3.705 21.243s2.935 14.291 3.696 21.185l.034.316h.313l103.115 2.765 83.442 2.434-87.134 1.051h-.006zm33.628 1.454a10.48 10.48 0 0 0-6.587.021c-2.138.715-3.998 2.099-5.312 3.954a10.9 10.9 0 0 0-1.997 6.37c.015 2.284.744 4.505 2.082 6.342a10.64 10.64 0 0 0 5.365 3.88c2.148.685 4.454.66 6.587-.07a10.65 10.65 0 0 0 5.282-3.994c1.3-1.865 1.983-4.101 1.951-6.385-.028-2.258-.755-4.45-2.077-6.265s-3.175-3.163-5.294-3.852zm-3.121 20.409c-1.977.028-3.917-.539-5.576-1.629a10.1 10.1 0 0 1-3.745-4.499c-.782-1.842-1.009-3.879-.65-5.852a10.2 10.2 0 0 1 2.663-5.232 9.96 9.96 0 0 1 5.079-2.849 9.86 9.86 0 0 1 5.783.495 10.03 10.03 0 0 1 4.537 3.672 10.24 10.24 0 0 1-1.071 12.818c-1.847 1.927-4.371 3.034-7.02 3.076h0zm-.522-16.381c-1.205.061-2.37.459-3.367 1.149a6.63 6.63 0 0 0-2.282 2.762c-.058.136.937.504 1.024.298.397-.908.993-1.712 1.743-2.349a6.36 6.36 0 0 1 2.586-1.326 4.83 4.83 0 0 1 2.642.028c.885.316 1.68.849 2.313 1.552.674.709 1.169 1.574 1.442 2.519s.317 1.944.128 2.911c-.379 1.928-1.615 3.69-3.387 4.54a5.88 5.88 0 0 1-3.195.534 4.98 4.98 0 0 1-2.744-1.297 1.37 1.37 0 0 0-.688-.246c-.085-.013-.397-.035-.232.115a7.65 7.65 0 0 0 3.052 1.604c1.124.294 2.298.327 3.436.095 1.044-.239 2.01-.745 2.806-1.471a6.35 6.35 0 0 0 1.738-2.675c.359-1.021.45-2.12.263-3.187s-.644-2.067-1.328-2.9c-.732-.867-1.647-1.557-2.677-2.016s-2.148-.678-3.273-.639h0zm-90.15-3.807c-2.132-.734-4.439-.762-6.588-.08a10.64 10.64 0 0 0-5.37 3.874c-1.341 1.835-2.073 4.055-2.091 6.34a10.9 10.9 0 0 0 1.991 6.373c1.312 1.857 3.17 3.244 5.308 3.96a10.49 10.49 0 0 0 6.588.027c2.143-.699 4.013-2.07 5.339-3.916a10.9 10.9 0 0 0 2.042-6.357c.011-2.258-.681-4.462-1.978-6.298s-3.131-3.208-5.242-3.923h0zm-3.408 20.366c-1.978.002-3.911-.592-5.556-1.706a10.12 10.12 0 0 1-3.686-4.551 10.28 10.28 0 0 1-.572-5.862c.385-1.968 1.336-3.777 2.734-5.197a9.95 9.95 0 0 1 5.119-2.779 9.86 9.86 0 0 1 5.777.576c1.827.768 3.389 2.068 4.488 3.736a10.25 10.25 0 0 1 1.686 5.637c-.004 2.688-1.058 5.265-2.93 7.166s-4.41 2.973-7.059 2.979zm-.29-16.391a6.49 6.49 0 0 0-3.379 1.1c-1.005.675-1.808 1.618-2.319 2.726-.058.134.931.514 1.02.311a6.47 6.47 0 0 1 1.777-2.317A6.35 6.35 0 0 1 97 61.497a4.81 4.81 0 0 1 2.642.067 5.68 5.68 0 0 1 2.292 1.569 6.13 6.13 0 0 1 1.406 2.54c.26.949.289 1.948.086 2.912-.407 1.924-1.668 3.675-3.451 4.486-1.004.46-2.113.629-3.206.489a4.98 4.98 0 0 1-2.727-1.338 1.39 1.39 0 0 0-.686-.257c-.083-.013-.394-.039-.232.112.874.774 1.91 1.337 3.029 1.648a7.59 7.59 0 0 0 3.434.146 6.21 6.21 0 0 0 2.827-1.43 6.34 6.34 0 0 0 1.776-2.651c.374-1.016.479-2.113.306-3.183s-.617-2.076-1.29-2.918a7.48 7.48 0 0 0-2.647-2.048 7.38 7.38 0 0 0-3.26-.68h0zm123.182-4.568a10.49 10.49 0 0 0-6.588.021c-2.138.714-3.998 2.099-5.311 3.954a10.9 10.9 0 0 0-1.998 6.37c.016 2.285.745 4.505 2.084 6.342s3.217 3.195 5.365 3.88a10.48 10.48 0 0 0 6.587-.072 10.65 10.65 0 0 0 5.282-3.995c1.299-1.865 1.982-4.101 1.949-6.386-.019-2.26-.743-4.455-2.067-6.272s-3.18-3.162-5.303-3.843h0zm-3.121 20.413a9.89 9.89 0 0 1-5.578-1.629c-1.66-1.091-2.963-2.656-3.746-4.499a10.28 10.28 0 0 1-.652-5.853 10.2 10.2 0 0 1 2.662-5.234 9.96 9.96 0 0 1 5.079-2.851 9.86 9.86 0 0 1 5.784.493c1.838.741 3.417 2.019 4.539 3.671s1.736 3.605 1.764 5.611a10.24 10.24 0 0 1-2.83 7.21 9.94 9.94 0 0 1-7.02 3.079h-.002z"/><path d="M216.84 60.419c-1.205.062-2.37.46-3.367 1.15a6.62 6.62 0 0 0-2.282 2.763c-.058.134.937.502 1.024.296a6.48 6.48 0 0 1 1.743-2.349 6.36 6.36 0 0 1 2.586-1.326 4.83 4.83 0 0 1 2.641.03 5.71 5.71 0 0 1 2.314 1.535 6.14 6.14 0 0 1 1.442 2.52c.274.946.317 1.944.128 2.911-.379 1.93-1.615 3.69-3.387 4.54a5.86 5.86 0 0 1-3.196.534 4.97 4.97 0 0 1-2.743-1.297 1.38 1.38 0 0 0-.688-.247c-.086-.011-.397-.035-.233.115.885.762 1.929 1.311 3.053 1.605s2.298.328 3.436.096c1.044-.239 2.01-.746 2.806-1.472s1.394-1.648 1.738-2.676a6.32 6.32 0 0 0 .263-3.186c-.187-1.067-.645-2.066-1.328-2.899a7.5 7.5 0 0 0-2.678-2.01 7.4 7.4 0 0 0-3.272-.632h0zm29.233-4.127a10.48 10.48 0 0 0-6.587.021c-2.138.715-3.998 2.099-5.312 3.954a10.9 10.9 0 0 0 .087 12.712 10.64 10.64 0 0 0 5.364 3.88 10.49 10.49 0 0 0 6.588-.071c2.133-.731 3.982-2.13 5.281-3.995s1.983-4.101 1.95-6.386a10.89 10.89 0 0 0-2.081-6.261 10.63 10.63 0 0 0-5.29-3.854h0zm-3.12 20.413a9.9 9.9 0 0 1-5.577-1.629c-1.66-1.09-2.962-2.656-3.744-4.498s-1.009-3.878-.651-5.851a10.19 10.19 0 0 1 2.662-5.232 9.96 9.96 0 0 1 5.078-2.85 9.86 9.86 0 0 1 5.782.493c1.837.741 3.416 2.018 4.538 3.67a10.24 10.24 0 0 1 1.764 5.61c.034 2.689-.985 5.282-2.831 7.21s-4.372 3.035-7.021 3.078h0zm-.531-16.392a6.49 6.49 0 0 0-3.367 1.148 6.62 6.62 0 0 0-2.282 2.763c-.058.134.937.501 1.022.296a6.48 6.48 0 0 1 1.746-2.343 6.36 6.36 0 0 1 2.585-1.321 4.83 4.83 0 0 1 2.642.028 5.7 5.7 0 0 1 2.313 1.537c.674.71 1.169 1.574 1.442 2.52a6.18 6.18 0 0 1 .128 2.911c-.379 1.928-1.615 3.69-3.387 4.54-.996.474-2.102.658-3.195.534a4.98 4.98 0 0 1-2.744-1.297 1.38 1.38 0 0 0-.69-.246c-.083-.013-.397-.035-.23.112.884.762 1.927 1.31 3.051 1.605a7.58 7.58 0 0 0 3.435.096c1.047-.236 2.016-.74 2.815-1.466s1.4-1.648 1.746-2.678c.359-1.021.45-2.12.263-3.187s-.644-2.067-1.328-2.9a7.49 7.49 0 0 0-2.683-2.018 7.39 7.39 0 0 0-3.282-.632h0zM94.851 29.223c.164-.93-.293-1.641-1.371-2.133l-2.262-.902c-2.625-1.172-3.871-2.785-3.738-4.84a4.44 4.44 0 0 1 .938-2.531c.571-.734 1.371-1.309 2.402-1.723a8.43 8.43 0 0 1 3.34-.609c1.648.031 2.98.523 3.996 1.477 1.016.945 1.516 2.215 1.5 3.809h-3.422c.039-.773-.133-1.375-.516-1.805-.375-.43-.961-.652-1.758-.668-.781-.016-1.461.164-2.039.539-.578.367-.922.875-1.031 1.523-.148.852.422 1.527 1.711 2.027l1.547.586.891.41c2.305 1.141 3.383 2.742 3.234 4.805-.07 1.008-.395 1.879-.973 2.613-.57.727-1.352 1.285-2.344 1.676-.984.391-2.07.574-3.258.551-1.211-.023-2.289-.277-3.234-.762s-1.664-1.168-2.156-2.051c-.461-.82-.676-1.758-.644-2.812l3.434.012c-.109 1.852.801 2.793 2.73 2.824.836 0 1.523-.184 2.063-.551a2.14 2.14 0 0 0 .961-1.465zm19.992-9.656h-5.062l-2.461 14.215h-3.434l2.461-14.215h-5.004l.504-2.848h13.5l-.504 2.848zm6.903 7.969h-2.789l-1.09 6.246h-3.434l2.965-17.062 5.648.012c1.891 0 3.344.445 4.36 1.336 1.023.891 1.476 2.129 1.359 3.715-.164 2.344-1.414 3.973-3.75 4.887l2.402 6.926v.188h-3.656l-2.015-6.246zm-2.297-2.848l2.554.024c.907-.016 1.653-.258 2.239-.727.593-.477.949-1.121 1.066-1.934.109-.758-.012-1.352-.363-1.781s-.91-.66-1.676-.691l-2.93-.012-.89 5.121zm25.523-7.969l-1.922 11.25c-.265 1.883-1.047 3.371-2.343 4.465s-2.907 1.625-4.829 1.594c-1.203-.023-2.25-.285-3.14-.785a4.66 4.66 0 0 1-1.957-2.133c-.422-.922-.567-1.965-.434-3.129l1.91-11.262h3.434l-1.91 11.273c-.055.438-.059.848-.012 1.23.156 1.266.91 1.922 2.262 1.969.969.031 1.761-.234 2.379-.797s1.015-1.367 1.195-2.414l1.922-11.262h3.445zm13.559 14.906c-.61.773-1.504 1.371-2.684 1.793-1.172.414-2.496.609-3.972.586-1.165-.008-2.188-.262-3.071-.762-.883-.508-1.578-1.234-2.086-2.18s-.797-2.023-.867-3.234c-.078-1.125.039-2.445.352-3.961.32-1.523.863-2.855 1.629-3.996.773-1.148 1.699-2.004 2.777-2.566 1.078-.57 2.273-.844 3.586-.82 1.781.031 3.176.535 4.183 1.512 1.008.969 1.582 2.359 1.723 4.172l-3.305-.012c-.086-.953-.339-1.656-.761-2.109s-1.051-.695-1.887-.727c-1.445-.047-2.586.59-3.422 1.91-.828 1.313-1.301 3.219-1.418 5.719-.078 1.336.125 2.371.609 3.105.493.734 1.239 1.109 2.239 1.125 1.164.031 2.156-.246 2.976-.832l.575-2.941h-3.118l.457-2.59h6.516l-1.031 6.809zm12.34-1.359h-5.954l-1.757 3.516h-3.785l9.117-17.062h3.175l3.247 17.063h-3.504l-.539-3.516zm-4.547-2.848h4.113l-.961-6.352-3.152 6.352zm17.625.117h-2.789l-1.09 6.246h-3.434l2.965-17.062 5.649.012c1.89 0 3.343.445 4.359 1.336 1.023.891 1.476 2.129 1.359 3.715-.164 2.344-1.414 3.973-3.75 4.887l2.403 6.926v.188h-3.657l-2.015-6.246zm-2.297-2.848l2.555.024c.906-.016 1.652-.258 2.238-.727.594-.477.949-1.121 1.066-1.934.11-.758-.011-1.352-.363-1.781s-.91-.66-1.676-.691l-2.93-.012-.89 5.121zm21.223 1.699h-6.54l-.796 4.57h7.687l-.492 2.824h-11.121l2.965-17.062h11.097l-.504 2.848h-7.652l-.715 4.066h6.563l-.492 2.754zm8.46.586l-2.25 2.086-.82 4.723h-3.433l2.964-17.062h3.434l-1.313 7.523 1.747-1.969 5.132-5.555h4.477l-7.371 7.758 4.394 9.305h-3.914l-3.047-6.809zm-85.066 14.395h-2.492l-.848 1.594h-.519l3.074-5.687h.457l1.098 5.688h-.473l-.297-1.594zm-2.277-.41h2.199l-.563-3.082-1.636 3.082zm8.648-3.684l-.66 3.848c-.094.599-.345 1.072-.754 1.418s-.906.514-1.492.504a1.9 1.9 0 0 1-.953-.254 1.41 1.41 0 0 1-.582-.68c-.12-.292-.158-.618-.114-.98l.661-3.855h.472l-.656 3.859c-.055.44.026.797.242 1.07s.534.414.953.43c.438.016.814-.105 1.129-.363s.516-.616.602-1.074l.672-3.922h.48zm4.992.41h-1.886l-.918 5.277h-.477l.918-5.277h-1.891l.075-.41h4.254l-.075.41zm1.864 5.355c-.532-.011-.954-.194-1.266-.551s-.478-.839-.504-1.437a3.39 3.39 0 0 1 .027-.621l.079-.539c.117-.794.403-1.443.859-1.945a2.18 2.18 0 0 1 1.726-.75 1.76 1.76 0 0 1 .915.258c.263.161.467.398.613.711a2.6 2.6 0 0 1 .238 1.023 3.65 3.65 0 0 1-.035.656l-.09.602c-.091.537-.26 1.005-.508 1.406s-.543.702-.894.902a2.24 2.24 0 0 1-1.16.285zm2.183-3.238a4.34 4.34 0 0 0 .035-.5 2.42 2.42 0 0 0-.148-.867c-.099-.26-.249-.46-.449-.598s-.439-.215-.723-.223c-.521-.013-.965.175-1.332.563s-.609.907-.727 1.566c-.093.534-.139.928-.136 1.184 0 .526.114.938.343 1.234s.558.451.977.461a1.69 1.69 0 0 0 1.375-.602c.365-.414.598-.961.699-1.641l.086-.578zm2.852.848h-1.824l.07-.395h1.824l-.07.395zm4.074-.414h-2.578l-.406 2.32h2.968l-.07.406h-3.445l.988-5.687h3.426l-.074.41h-2.946l-.375 2.145h2.582l-.07.406zm1.473 2.32h2.726l-.07.406h-3.207l.988-5.687h.481l-.918 5.281zm7.113-2.32h-2.578l-.406 2.32h2.968l-.07.406h-3.445l.988-5.687h3.426l-.074.41h-2.946l-.375 2.145h2.582l-.07.406zm2.68-.09l-.93.801-.352 2.016h-.476l.988-5.687h.477l-.528 3.031.91-.82 2.415-2.211h.636l-2.777 2.555 1.93 3.133h-.539l-1.754-2.816zm7.847-2.461h-1.886l-.918 5.277h-.477l.918-5.277h-1.891l.075-.41h4.253l-.074.41zm2.492 2.91h-1.605l-.414 2.367h-.481l.989-5.687 1.683.004c.568 0 1.006.148 1.313.445s.436.693.387 1.195c-.04.38-.183.708-.43.984s-.572.477-.981.602l.969 2.402-.004.055h-.508l-.918-2.367zm-1.535-.41l1.407.004a1.56 1.56 0 0 0 1.027-.352c.286-.237.452-.544.496-.922.044-.365-.036-.658-.242-.879s-.509-.337-.91-.348l-1.344-.004-.434 2.5zm5.887.184l2.219-3.094h.578l-2.629 3.57-.367 2.117h-.477l.379-2.168-1.367-3.52h.535l1.129 3.094zm4.387-.223l-.93.801-.352 2.016h-.476l.988-5.687h.477l-.528 3.031.911-.82 2.414-2.211h.636l-2.777 2.555 1.93 3.133h-.539l-1.754-2.816z"/></g><defs><clipPath id="A"><path fill="#fff" d="M0 0h268v78H0z"/></clipPath></defs></svg>